<svg width="110" height="111" viewBox="0 0 110 111" fill="none" xmlns="http://www.w3.org/2000/svg">
<g id="emojione:flag-for-germany">
<g id="Group 11">
<path id="Vector" d="M11.8654 40.2333L11.3923 41.5675H12.8079H86.0691H87.4846L87.0116 40.2333C81.5675 24.8802 66.8311 13.7634 49.4385 13.7634C32.0458 13.7634 17.3094 24.8802 11.8654 40.2333Z" fill="#3E4347" stroke="white" stroke-width="2"/>
<path id="Vector_2" d="M87.0125 66.7032L87.4806 65.3716H86.0691H12.8079H11.3963L11.8645 66.7032C17.3094 82.1913 32.0497 93.1757 49.4385 93.1757C66.8272 93.1757 81.5675 82.1913 87.0125 66.7032Z" fill="#FFE62E" stroke="white" stroke-width="2"/>
<path id="Vector_3" d="M12.8078 39.5675H12.1024L11.8658 40.2321C10.4034 44.34 9.60742 48.8402 9.60742 53.4696C9.60742 58.0989 10.4034 62.5991 11.8658 66.707L12.1024 67.3716H12.8078H86.069H86.7745L87.0111 66.707C88.4735 62.5991 89.2695 58.0989 89.2695 53.4696C89.2695 48.8402 88.4735 44.34 87.0111 40.2321L86.7745 39.5675H86.069H12.8078Z" fill="#EC3A4C" stroke="white" stroke-width="2"/>
</g>
</g>
</svg>
