<svg width="24" height="24" viewBox="0 0 24 24" fill="none" xmlns="http://www.w3.org/2000/svg">
<g id="ph:x">
<rect width="24" height="24" rx="5" fill="#F1D4D4"/>
<path id="Vector" d="M16.8535 16.146C16.8999 16.1925 16.9368 16.2476 16.9619 16.3083C16.9871 16.369 17 16.4341 17 16.4997C17 16.5654 16.9871 16.6305 16.9619 16.6912C16.9368 16.7519 16.8999 16.807 16.8535 16.8535C16.807 16.8999 16.7519 16.9368 16.6912 16.9619C16.6305 16.9871 16.5654 17 16.4997 17C16.4341 17 16.369 16.9871 16.3083 16.9619C16.2476 16.9368 16.1925 16.8999 16.146 16.8535L12 12.7068L7.85398 16.8535C7.76017 16.9473 7.63292 17 7.50025 17C7.36758 17 7.24033 16.9473 7.14652 16.8535C7.0527 16.7597 7 16.6324 7 16.4997C7 16.3671 7.0527 16.2398 7.14652 16.146L11.2932 12L7.14652 7.85398C7.0527 7.76017 7 7.63292 7 7.50025C7 7.36758 7.0527 7.24033 7.14652 7.14652C7.24033 7.0527 7.36758 7 7.50025 7C7.63292 7 7.76017 7.0527 7.85398 7.14652L12 11.2932L16.146 7.14652C16.2398 7.0527 16.3671 7 16.4997 7C16.6324 7 16.7597 7.0527 16.8535 7.14652C16.9473 7.24033 17 7.36758 17 7.50025C17 7.63292 16.9473 7.76017 16.8535 7.85398L12.7068 12L16.8535 16.146Z" fill="#EC3A4C"/>
</g>
</svg>
