<svg width="45" height="45" viewBox="0 0 45 45" fill="none" xmlns="http://www.w3.org/2000/svg">
<g clip-path="url(#clip0_148_6)">
<path d="M20.6283 38.355L20.627 36.9483V38.3537L20.6283 38.355ZM13.3668 31.0935L11.9601 31.0921L13.3654 31.0921L13.3668 31.0935ZM31.5478 31.0656L30.1411 31.0643L31.5465 31.0643L31.5478 31.0656ZM30.1663 15.5853L30.1424 31.0656L32.9558 31.0683L32.977 15.5879L30.1663 15.5853ZM24.2624 36.943L20.6243 36.9483L20.631 39.763L24.269 39.7577L24.2637 36.9443L24.2624 36.943ZM14.7721 31.0961L14.796 15.6131L11.9826 15.6105L11.9601 31.0921L14.7721 31.0961ZM17.5908 8.88855L18.3452 8.13416L16.3565 6.14542L15.6008 6.90114L17.5895 8.88988L17.5908 8.88855ZM26.6409 8.11957L27.3927 8.87132L29.3814 6.88258L28.6297 6.13084L26.6409 8.11957ZM18.3452 8.13416C19.5862 6.89319 20.4215 6.06322 21.1228 5.52626C21.7937 5.01449 22.1782 4.90312 22.5004 4.9018L22.4964 2.08972C21.3124 2.09105 20.3366 2.58956 19.4178 3.29092C18.5295 3.96709 17.5418 4.96013 16.3565 6.14542L18.3452 8.13416ZM28.6297 6.13084C27.447 4.9482 26.4633 3.95913 25.5763 3.28429C24.6575 2.58293 23.6803 2.08839 22.4964 2.08972L22.4977 4.90445C22.8199 4.90312 23.2031 5.01317 23.8699 5.52096C24.5713 6.05526 25.4013 6.87993 26.6409 8.11957L28.6297 6.13084ZM20.627 36.9483C18.8729 36.9523 17.6982 36.9496 16.8232 36.833C15.9892 36.7229 15.6419 36.5294 15.4165 36.304L13.4277 38.2927C14.2657 39.1306 15.3064 39.4687 16.4533 39.6212C17.5577 39.7683 18.9551 39.763 20.6296 39.7617L20.627 36.9483ZM24.265 39.7564C25.9382 39.7538 27.3383 39.7538 28.4427 39.6039C29.5909 39.4475 30.6303 39.1054 31.4669 38.2688L29.4782 36.2801C29.2488 36.5095 28.8988 36.703 28.0662 36.8171C27.1898 36.9351 26.0151 36.9404 24.2624 36.943L24.265 39.7564ZM32.977 15.5853C32.981 13.4733 33.0062 12.0241 32.4613 10.7023L29.8627 11.7762C30.1451 12.459 30.1703 13.2399 30.1663 15.5853L32.977 15.5879L32.977 15.5853ZM27.3927 8.87132C29.0486 10.5273 29.5803 11.0934 29.8627 11.7762L32.4613 10.7023C31.915 9.38176 30.8743 8.37546 29.3814 6.88258L27.3927 8.87132ZM14.796 15.6158C14.8 13.2704 14.8252 12.4895 15.1102 11.804L12.5129 10.7261C11.964 12.0467 11.9866 13.4958 11.9826 15.6105L14.796 15.6131L14.796 15.6158ZM15.6008 6.90114C14.1039 8.398 13.0618 9.40562 12.5129 10.7261L15.1089 11.8054C15.3953 11.1212 15.9309 10.5485 17.5908 8.88855L15.6021 6.89981L15.6008 6.90114ZM30.1411 31.0643C30.1398 32.418 30.1371 33.4362 30.0775 34.2516C30.0178 35.0723 29.9051 35.5535 29.7593 35.8717L32.3128 37.0517C32.6708 36.2748 32.814 35.3945 32.8816 34.4571C32.9505 33.5184 32.9518 32.3848 32.9545 31.0696L30.1411 31.0643ZM29.7593 35.8717C29.6912 36.0239 29.596 36.1623 29.4782 36.2801L31.4669 38.2688C31.8249 37.9109 32.1033 37.5052 32.3128 37.0517L29.7593 35.8717ZM11.9601 31.0921C11.9587 32.3769 11.9561 33.4853 12.0157 34.4094C12.0767 35.3295 12.208 36.1926 12.5328 36.9576L15.1208 35.8545C14.979 35.527 14.8769 35.0378 14.8225 34.2251C14.7695 33.4163 14.7708 32.4153 14.7708 31.0948L11.9601 31.0921ZM12.5328 36.9576C12.742 37.4563 13.0459 37.9097 13.4277 38.2927L15.4165 36.304C15.2972 36.1846 15.2017 36.0468 15.1208 35.8545L12.5315 36.9563L12.5328 36.9576Z" fill="#EC3A4C"/>
<path opacity="0.5" d="M13.3588 36.4074L13.3588 35.002L13.3561 34.9993L13.3588 36.4074ZM13.673 25.1949C14.0275 25.1063 14.3336 24.8832 14.5265 24.5728C14.7194 24.2625 14.7839 23.8892 14.7063 23.5321C14.6288 23.175 14.4153 22.8621 14.111 22.6597C13.8068 22.4573 13.4357 22.3813 13.0764 22.4478L13.673 25.1949ZM4.27024 36.1939L5.67429 36.1952L4.26892 36.1952L4.27024 36.1939ZM6.97493 37.2095L7.5331 38.4995L6.9736 37.2082L6.97493 37.2095ZM10.8158 36.41L10.8145 35.0033L10.8145 36.4087L10.8158 36.41ZM31.7811 36.4617L31.7811 37.8671C31.8121 37.8672 31.843 37.8663 31.8739 37.8645L31.7811 36.4617ZM31.8554 22.4186C31.6746 22.3799 31.4881 22.3773 31.3063 22.4107C31.1245 22.4442 30.9512 22.5131 30.796 22.6135C30.6409 22.714 30.5071 22.844 30.4022 22.9962C30.2973 23.1484 30.2235 23.3197 30.1848 23.5005C30.1462 23.6812 30.1435 23.8678 30.1769 24.0495C30.2104 24.2313 30.2793 24.4047 30.3798 24.5598C30.4802 24.7149 30.6103 24.8487 30.7624 24.9536C30.9146 25.0585 31.086 25.1324 31.2667 25.171L31.8554 22.4186ZM33.0831 36.3769L33.0817 34.9702L33.0353 34.9715L32.9903 34.9742L33.0831 36.3769ZM13.0737 22.4478L11.7028 22.7447L12.2981 25.4932L13.6703 25.1949L13.0737 22.4478ZM11.7028 22.7447C10.3492 23.0377 9.25534 23.2751 8.375 23.5376C7.47344 23.8081 6.70313 24.1329 6.00707 24.6486L7.68689 26.9065C8.02233 26.6586 8.45189 26.4517 9.18375 26.2317C9.93682 26.0089 10.906 25.7955 12.3008 25.4932L11.7068 22.7461L11.7028 22.7447ZM5.67562 36.1966C5.66682 34.7074 5.68936 33.2181 5.74323 31.7299C5.77373 31.0444 5.82013 30.4332 5.8851 29.936C5.95271 29.4123 6.02961 29.1127 6.08132 28.9867L3.4827 27.9128C3.28383 28.3954 3.16981 28.9973 3.09556 29.5754C3.01866 30.1826 2.96563 30.8774 2.93248 31.6026C2.86619 33.053 2.86487 34.7169 2.86354 36.1926L5.67562 36.1966ZM6.00972 24.6486C4.88755 25.488 4.01417 26.6161 3.4827 27.9128L6.08132 28.9867C6.41851 28.1609 6.9734 27.4419 7.68689 26.9065L6.00972 24.6486ZM6.83174 38.8031L7.5331 38.4995L6.41543 35.9181L5.71539 36.2204L6.83174 38.8031ZM10.8158 37.8154L13.3601 37.8141L13.3561 34.9993L10.8145 35.0033L10.8185 37.8154L10.8158 37.8154ZM7.5331 38.4995L7.7439 38.408L6.66203 35.8121L6.41543 35.9181L7.5331 38.4995ZM10.8145 35.0033L10.5467 35.006L10.5878 37.818C10.6382 37.8154 10.6912 37.8154 10.8185 37.8154L10.8145 35.0033ZM7.7439 38.408C8.6459 38.0329 9.61101 37.8327 10.5878 37.818L10.5467 35.006C9.21275 35.0263 7.89352 35.299 6.66203 35.8121L7.7439 38.408ZM2.86354 36.1926C2.86284 36.6636 2.97935 37.1274 3.20259 37.5422C3.42582 37.957 3.74876 38.3097 4.1423 38.5685C4.53583 38.8274 4.9876 38.9842 5.45687 39.025C5.92614 39.0657 6.39817 38.989 6.83041 38.8018L5.71539 36.2204C5.71073 36.2224 5.70583 36.2237 5.70081 36.2244C5.70081 36.2244 5.69285 36.2244 5.68755 36.2191L5.67694 36.2085C5.67694 36.2085 5.67429 36.2058 5.67562 36.1966L2.86354 36.1926ZM31.2667 25.1683L32.6376 25.4627L33.2263 22.7129L31.8554 22.4186L31.2667 25.171L31.2667 25.1683ZM39.2243 36.1382L39.2243 36.361L42.0377 36.3636L42.0377 36.1409L39.2243 36.1382ZM32.6376 25.4627C34.0337 25.761 35.0002 25.9691 35.7533 26.1919C36.4838 26.4106 36.9134 26.6148 37.2435 26.8601L38.9194 24.6009C38.2233 24.0851 37.4503 23.763 36.5514 23.4952C35.6724 23.234 34.5799 23.0033 33.2263 22.7129L32.6363 25.464L32.6376 25.4627ZM42.0377 36.1409C42.0513 34.6102 42.031 33.0807 41.9794 31.5509C41.9475 30.827 41.8998 30.1322 41.8242 29.5263C41.75 28.9483 41.6399 28.345 41.4411 27.8624L38.8398 28.931C38.9389 29.2389 39.0034 29.5569 39.0321 29.879C39.097 30.3762 39.1408 30.9847 39.1699 31.6715C39.2283 33.0477 39.2269 34.6453 39.2243 36.1382L42.0377 36.1409ZM37.2435 26.8601C37.9382 27.3745 38.4938 28.0891 38.8385 28.9324L41.4411 27.8624C40.9131 26.5659 40.0412 25.4382 38.9194 24.6009L37.2435 26.8601ZM32.9903 34.9742L31.6883 35.059L31.8739 37.8645L33.1746 37.7809L32.9903 34.9742ZM39.3953 36.2642C38.397 35.8359 37.7937 35.5748 37.1573 35.3891L36.3698 38.0885C36.802 38.2131 37.2263 38.3935 38.2843 38.8495L39.3953 36.2642ZM33.0844 37.7836C34.2379 37.7809 34.7019 37.7836 35.1474 37.8366L35.4855 35.0457C34.8292 34.9649 34.1689 34.9675 33.0804 34.9715L33.0844 37.7836ZM37.1573 35.3891C36.6098 35.2298 36.0516 35.114 35.4855 35.0457L35.1474 37.8366C35.561 37.887 35.9707 37.9705 36.3698 38.0885L37.1573 35.3891ZM39.2243 36.361C39.2248 36.3405 39.2302 36.3205 39.2402 36.3026C39.2465 36.2894 39.2561 36.278 39.268 36.2695C39.2825 36.2605 39.2988 36.2551 39.3158 36.2536C39.3428 36.2513 39.3699 36.2549 39.3953 36.2642L38.2843 38.8495C40.0702 39.6172 42.0337 38.2715 42.0364 36.3649L39.2243 36.361ZM31.7811 35.0564L31.0373 35.055L31.0347 37.8684L31.7811 37.8671L31.7824 35.0577L31.7811 35.0564ZM13.3601 37.8141L13.8255 37.8127L13.8255 35.002L13.3588 34.9967L13.3588 37.8101L13.3601 37.8141ZM23.8606 32.9006C23.8548 32.5319 23.7043 32.1802 23.4417 31.9214C23.1791 31.6625 22.8253 31.5172 22.4566 31.5167C22.0878 31.5162 21.7336 31.6605 21.4703 31.9186C21.2069 32.1767 21.0555 32.5279 21.0486 32.8966L23.862 32.8992L23.8606 32.9006ZM23.8527 38.355L23.8606 32.9006L21.0486 32.8966L21.0406 38.351L23.854 38.3537L23.8527 38.355ZM24.7065 18.3457C24.7053 18.9388 24.4691 19.5074 24.0497 19.9268C23.6303 20.3463 23.0617 20.5825 22.4685 20.5836L22.4725 23.3957C23.8101 23.3934 25.0922 22.861 26.038 21.9152C26.9838 20.9693 27.5162 19.6872 27.5186 18.3496L24.7065 18.3457ZM22.4685 20.5836C22.1765 20.5844 21.8872 20.5275 21.6173 20.4161C21.3473 20.3047 21.102 20.141 20.8956 19.9345C20.6891 19.728 20.5254 19.4828 20.414 19.2128C20.3026 18.9429 20.2457 18.6536 20.2464 18.3616L17.4344 18.3576C17.4331 19.0196 17.5626 19.6752 17.8153 20.2871C18.0681 20.8989 18.4392 21.4548 18.9072 21.9228C19.3753 22.3909 19.9312 22.762 20.543 23.0147C21.1548 23.2675 21.8105 23.397 22.4725 23.3957L22.4698 20.5823L22.4685 20.5836ZM20.2464 18.3616C20.2476 17.7684 20.4838 17.1998 20.9032 16.7804C21.3227 16.3609 21.8912 16.1248 22.4844 16.1236L22.4805 13.3115C21.1429 13.3139 19.8607 13.8462 18.9149 14.7921C17.9691 15.7379 17.4367 17.02 17.4344 18.3576L20.2478 18.3602L20.2464 18.3616ZM22.4844 16.1236C22.7765 16.1228 23.0657 16.1798 23.3357 16.2912C23.6056 16.4025 23.8509 16.5662 24.0574 16.7727C24.2639 16.9792 24.4275 17.2244 24.5389 17.4944C24.6503 17.7643 24.7073 18.0536 24.7065 18.3457L27.5186 18.3496C27.5198 17.6877 27.3904 17.032 27.1376 16.4202C26.8848 15.8083 26.5138 15.2525 26.0457 14.7844C25.5776 14.3163 25.0217 13.9452 24.4099 13.6925C23.7981 13.4397 23.1424 13.3103 22.4805 13.3115L22.4844 16.1236Z" fill="#EC3A4C"/>
</g>
<defs>
<clipPath id="clip0_148_6">
<rect width="45" height="45" fill="white"/>
</clipPath>
</defs>
</svg>
