<svg width="104" height="32" viewBox="0 0 104 32" fill="none" xmlns="http://www.w3.org/2000/svg">
<g id="Frame 151">
<rect width="104" height="32" rx="4" fill="#F6F6F6"/>
<path id="Star 1" d="M14.0489 6.92705C14.3483 6.00574 15.6517 6.00574 15.9511 6.92705L17.4697 11.6008C17.6035 12.0128 17.9875 12.2918 18.4207 12.2918H23.335C24.3037 12.2918 24.7065 13.5314 23.9228 14.1008L19.947 16.9894C19.5966 17.244 19.4499 17.6954 19.5838 18.1074L21.1024 22.7812C21.4017 23.7025 20.3472 24.4686 19.5635 23.8992L15.5878 21.0106C15.2373 20.756 14.7627 20.756 14.4122 21.0106L10.4365 23.8992C9.65276 24.4686 8.59828 23.7025 8.89763 22.7812L10.4162 18.1074C10.5501 17.6954 10.4034 17.244 10.053 16.9894L6.07722 14.1008C5.29351 13.5314 5.69628 12.2918 6.66501 12.2918H11.5793C12.0125 12.2918 12.3965 12.0128 12.5303 11.6008L14.0489 6.92705Z" fill="#FFCB11"/>
<path id="Star 2" d="M38.0489 6.92705C38.3483 6.00574 39.6517 6.00574 39.9511 6.92705L41.4697 11.6008C41.6035 12.0128 41.9875 12.2918 42.4207 12.2918H47.335C48.3037 12.2918 48.7065 13.5314 47.9228 14.1008L43.947 16.9894C43.5966 17.244 43.4499 17.6954 43.5838 18.1074L45.1024 22.7812C45.4017 23.7025 44.3472 24.4686 43.5635 23.8992L39.5878 21.0106C39.2373 20.756 38.7627 20.756 38.4122 21.0106L34.4365 23.8992C33.6528 24.4686 32.5983 23.7025 32.8976 22.7812L34.4162 18.1074C34.5501 17.6954 34.4034 17.244 34.053 16.9894L30.0772 14.1008C29.2935 13.5314 29.6963 12.2918 30.665 12.2918H35.5793C36.0125 12.2918 36.3965 12.0128 36.5303 11.6008L38.0489 6.92705Z" fill="#FFCB11"/>
<path id="Star 3" d="M62.0489 6.92705C62.3483 6.00574 63.6517 6.00574 63.9511 6.92705L65.4697 11.6008C65.6035 12.0128 65.9875 12.2918 66.4207 12.2918H71.335C72.3037 12.2918 72.7065 13.5314 71.9228 14.1008L67.947 16.9894C67.5966 17.244 67.4499 17.6954 67.5838 18.1074L69.1024 22.7812C69.4017 23.7025 68.3472 24.4686 67.5635 23.8992L63.5878 21.0106C63.2373 20.756 62.7627 20.756 62.4122 21.0106L58.4365 23.8992C57.6528 24.4686 56.5983 23.7025 56.8976 22.7812L58.4162 18.1074C58.5501 17.6954 58.4034 17.244 58.053 16.9894L54.0772 14.1008C53.2935 13.5314 53.6963 12.2918 54.665 12.2918H59.5793C60.0125 12.2918 60.3965 12.0128 60.5303 11.6008L62.0489 6.92705Z" fill="#FFCB11"/>
<path id="Star 4" d="M86.0489 6.92705C86.3483 6.00574 87.6517 6.00574 87.9511 6.92705L89.4697 11.6008C89.6035 12.0128 89.9875 12.2918 90.4207 12.2918H95.335C96.3037 12.2918 96.7065 13.5314 95.9228 14.1008L91.947 16.9894C91.5966 17.244 91.4499 17.6954 91.5838 18.1074L93.1024 22.7812C93.4017 23.7025 92.3472 24.4686 91.5635 23.8992L87.5878 21.0106C87.2373 20.756 86.7627 20.756 86.4122 21.0106L82.4365 23.8992C81.6528 24.4686 80.5983 23.7025 80.8976 22.7812L82.4162 18.1074C82.5501 17.6954 82.4034 17.244 82.053 16.9894L78.0772 14.1008C77.2935 13.5314 77.6963 12.2918 78.665 12.2918H83.5793C84.0125 12.2918 84.3965 12.0128 84.5303 11.6008L86.0489 6.92705Z" fill="#FFCB11"/>
</g>
</svg>
