<svg xmlns="http://www.w3.org/2000/svg" width="28" height="28" viewBox="0 0 28 28" fill="none">
  <path d="M19.7576 10.4593C19.4453 8.11295 18.2534 5.97288 16.423 4.47205C14.5926 2.97122 12.2605 2.22169 9.89848 2.37512C7.53645 2.52854 5.32088 3.57347 3.70005 5.29847C2.07922 7.02347 1.17415 9.29975 1.16797 11.6668C1.16797 13.8741 1.93447 15.9029 3.21664 17.5013C4.1593 18.6784 4.66797 19.9793 4.66797 21.3571V25.6668H15.168L15.1691 22.1668H17.5013C18.1201 22.1668 18.7136 21.9209 19.1512 21.4833C19.5888 21.0458 19.8346 20.4523 19.8346 19.8334V16.4163L22.1213 15.4363C22.5203 15.2659 22.5553 14.8599 22.3826 14.5881L19.7576 10.4581V10.4593ZM3.5013 11.6668C3.49951 9.88785 4.17506 8.17499 5.39069 6.87623C6.60631 5.57747 8.27081 4.79025 10.0459 4.67453C11.8211 4.55881 13.5737 5.12328 14.9476 6.25323C16.3216 7.38317 17.2138 8.99384 17.443 10.7579L17.5095 11.2736L19.3096 14.1028L17.5013 14.8774V19.8334H12.837L12.8346 23.3334H7.0013V21.3571C7.0013 19.4449 6.3118 17.6331 5.03547 16.0418C4.03915 14.8016 3.4977 13.2576 3.5013 11.6668ZM24.681 21.1191L22.7385 19.8241C23.8907 18.1005 24.5043 16.0733 24.5013 14.0001C24.5049 11.9266 23.8917 9.89889 22.7396 8.17492L24.681 6.87992C26.0894 8.98706 26.8391 11.4656 26.8346 14.0001C26.8346 16.6344 26.0413 19.0821 24.681 21.1191Z" fill="black"/>
</svg>