<svg width="78" height="103" viewBox="0 0 78 103" fill="none" xmlns="http://www.w3.org/2000/svg">
<g id="1 1" clip-path="url(#clip0_558_658)">
<g id="Group">
<path id="Vector" d="M70.2344 0.0654297H8.51302C4.25205 0.0654297 0.797852 3.31644 0.797852 7.32677V95.673C0.797852 99.6834 4.25205 102.934 8.51302 102.934H70.2344C74.4954 102.934 77.9496 99.6834 77.9496 95.673V7.32677C77.9496 3.31644 74.4954 0.0654297 70.2344 0.0654297Z" fill="url(#paint0_linear_558_658)"/>
<path id="Vector_2" d="M63.0308 71.8471H63.6374C63.7653 71.8471 63.9009 71.8428 64.0444 71.8342C64.1879 71.8256 64.3256 71.8084 64.4573 71.7826C64.5891 71.7569 64.7084 71.7213 64.8154 71.6758C64.9224 71.6304 65.0019 71.5721 65.0541 71.5009C65.0933 71.4469 65.1135 71.3744 65.1148 71.2836C65.1161 71.1927 65.103 71.0933 65.0756 70.9852C65.0482 70.8772 65.0117 70.7636 64.9661 70.6445C64.9204 70.5254 64.8715 70.41 64.8193 70.2983C64.7671 70.1866 64.7156 70.081 64.6647 69.9815C64.6138 69.8821 64.5715 69.798 64.5375 69.7292L65.4494 69.3056C65.5198 69.4235 65.5896 69.5653 65.6587 69.7311C65.7279 69.8968 65.7886 70.0681 65.8407 70.2449C65.8929 70.4217 65.9353 70.596 65.9679 70.7679C66.0005 70.9398 66.0168 71.092 66.0168 71.2246C66.0168 71.4628 65.9738 71.6752 65.8877 71.8618C65.7886 72.0779 65.649 72.2553 65.4689 72.3941C65.2889 72.5328 65.075 72.6366 64.8271 72.7053C64.7515 72.725 64.6569 72.7403 64.5434 72.7514C64.4299 72.7624 64.3145 72.771 64.1971 72.7771C64.0797 72.7833 63.9681 72.787 63.8625 72.7882C63.7568 72.7894 63.6753 72.79 63.6179 72.79H63.0152C63.0071 72.79 62.9991 72.7899 62.9912 72.7895C62.9713 72.7892 62.9493 72.7888 62.9252 72.7882C62.8756 72.787 62.8215 72.7814 62.7628 72.7716C62.7041 72.7618 62.6408 72.7464 62.573 72.7256C62.5051 72.7047 62.4386 72.6746 62.3734 72.6353C62.3395 72.9447 62.2397 73.2412 62.074 73.5248C61.9083 73.8085 61.699 74.0743 61.4459 74.3223C61.1928 74.5703 60.9091 74.7974 60.5947 75.0037C60.2803 75.2099 59.9574 75.3904 59.6261 75.5451L59.1878 74.6943C59.3704 74.6059 59.5537 74.5101 59.7376 74.407C59.9216 74.3039 60.097 74.194 60.264 74.0773C60.431 73.9607 60.5869 73.8373 60.7317 73.7072C60.8765 73.577 61.0017 73.4426 61.1074 73.3038C61.213 73.1651 61.2965 73.0221 61.3578 72.8747C61.4191 72.7274 61.4498 72.5764 61.4498 72.4217C61.4498 72.4021 61.4491 72.3818 61.4478 72.3609C61.4465 72.3401 61.4446 72.3198 61.442 72.3001V72.3038C61.4237 72.1663 61.393 72.027 61.35 71.8858C61.3069 71.7446 61.2606 71.6077 61.2111 71.4751C61.1615 71.3425 61.1119 71.2154 61.0624 71.0939C61.0128 70.9723 60.971 70.8624 60.9371 70.7642L61.8764 70.3959C61.9781 70.6832 62.074 70.9208 62.164 71.1086C62.254 71.2965 62.3447 71.445 62.436 71.5543C62.5273 71.6636 62.6206 71.7397 62.7158 71.7826C62.811 71.8256 62.916 71.8471 63.0308 71.8471ZM63.7274 74.628L63.0621 73.9981L63.7353 73.3683L64.4006 73.9945L63.7274 74.628ZM65.2067 74.6206L64.5415 73.9945L65.2146 73.3609L65.8799 73.9908L65.2067 74.6206ZM64.4749 74.4807L65.0854 75.0552L64.471 75.6335L63.8605 75.0589L64.4749 74.4807ZM56.0805 71.3425C56.1796 71.4014 56.299 71.4616 56.4386 71.523C56.5781 71.5844 56.7229 71.6402 56.873 71.6906C57.023 71.7409 57.1704 71.7814 57.3152 71.8121C57.46 71.8428 57.5872 71.8582 57.6968 71.8582C57.762 71.8582 57.85 71.8551 57.9609 71.8489C58.0718 71.8428 58.1807 71.8256 58.2877 71.7974C58.3947 71.7691 58.4873 71.7249 58.5655 71.6648C58.6438 71.6046 58.6843 71.5193 58.6869 71.4088C58.6895 71.3081 58.6608 71.1946 58.6008 71.0681C58.5408 70.9416 58.4599 70.8103 58.3581 70.674C58.2564 70.5377 58.139 70.4008 58.0059 70.2633C57.8729 70.1258 57.7346 69.9938 57.5911 69.8673C57.4476 69.7409 57.3034 69.6242 57.1586 69.5174C57.0138 69.4106 56.8788 69.3204 56.7536 69.2467L57.3367 68.4327C57.5767 68.5874 57.8135 68.7617 58.047 68.9557C58.2805 69.1497 58.4958 69.3566 58.6927 69.5764C58.8897 69.7961 59.0606 70.0251 59.2054 70.2633C59.3502 70.5015 59.4539 70.7421 59.5165 70.9852C59.5844 71.2578 59.5857 71.5095 59.5204 71.7403C59.4552 71.9711 59.3378 72.1694 59.1682 72.3351C58.9986 72.5009 58.7834 72.628 58.5225 72.7164C58.2616 72.8048 57.9694 72.8416 57.6459 72.8269C57.4737 72.8269 57.2989 72.8109 57.1215 72.779C56.9441 72.7471 56.7699 72.7047 56.599 72.6519C56.4281 72.5991 56.2638 72.5377 56.1059 72.4677C55.9481 72.3978 55.8013 72.3235 55.6656 72.2449L56.0805 71.3425ZM53.8224 67.2209L54.8282 66.9115C54.9586 67.8421 55.0264 68.7126 55.0317 69.5229C55.0369 70.8268 55.0173 71.8643 54.973 72.6353L53.9476 72.7827C54.0259 71.6482 54.0494 70.6979 54.0181 69.9318C53.9763 68.9299 53.9111 68.0263 53.8224 67.2209ZM47.2203 71.8479C47.2307 71.8474 47.2411 71.8471 47.2516 71.8471H48.0265C48.35 71.8471 48.6794 71.8183 49.0147 71.7605C49.3499 71.7028 49.6832 71.6267 50.0146 71.5322C50.3459 71.4376 50.6694 71.329 50.9851 71.2062C51.3008 71.0834 51.5995 70.957 51.8813 70.8268C51.6569 70.7802 51.4482 70.7182 51.2551 70.6408C51.0621 70.5635 50.8794 70.488 50.7073 70.4143C50.5351 70.3406 50.3694 70.2768 50.2102 70.2228C50.0511 70.1688 49.8933 70.1417 49.7367 70.1417C49.6454 70.1417 49.56 70.1571 49.4804 70.1878C49.4008 70.2185 49.3271 70.2572 49.2593 70.3038C49.1914 70.3505 49.1308 70.402 49.0773 70.4585C49.0238 70.515 48.9768 70.5696 48.9364 70.6224C48.896 70.6752 48.8627 70.7225 48.8366 70.7642C48.8105 70.806 48.7923 70.8354 48.7818 70.8526L47.9678 70.3554C48.0565 70.208 48.1622 70.065 48.2848 69.9263C48.4074 69.7875 48.5437 69.6635 48.6938 69.5543C48.8438 69.445 49.0062 69.3578 49.181 69.2927C49.3558 69.2277 49.541 69.1951 49.7367 69.1951C49.9376 69.1951 50.1372 69.2203 50.3355 69.2706C50.5338 69.321 50.7301 69.3842 50.9245 69.4603C51.1188 69.5365 51.3138 69.6193 51.5095 69.709C51.7052 69.7986 51.9028 69.8821 52.1024 69.9594C52.302 70.0368 52.5035 70.1018 52.7071 70.1546C52.9106 70.2074 53.1193 70.2351 53.3332 70.2375L53.251 71.1878C52.8858 71.3523 52.5049 71.5267 52.1083 71.7108C51.7117 71.895 51.2969 72.0656 50.8638 72.2228C50.4307 72.38 49.978 72.5113 49.5058 72.6169C49.0336 72.7225 48.5405 72.7802 48.0265 72.79H47.2516C47.2411 72.79 47.2307 72.7897 47.2203 72.7892C47.21 72.7897 47.1996 72.79 47.189 72.79H47.1577C46.9412 72.79 46.7429 72.7728 46.5629 72.7385C46.3828 72.7041 46.2185 72.6494 46.0698 72.5746C45.9211 72.4997 45.7887 72.4039 45.6725 72.2873C45.5564 72.1706 45.4553 72.03 45.3693 71.8655C44.6518 72.4892 43.5782 72.8011 42.1484 72.8011C41.337 72.7962 40.6633 72.7004 40.1271 72.5138C39.591 72.3272 39.1964 72.0423 38.9433 71.6593C38.8442 71.5021 38.7731 71.3388 38.73 71.1694C38.687 70.9999 38.6654 70.8342 38.6654 70.6721C38.6654 70.4732 38.6915 70.2817 38.7437 70.0975V70.1012C38.775 69.9809 38.8076 69.8759 38.8415 69.7863C38.8755 69.6967 38.9068 69.6212 38.9355 69.5598C38.9642 69.4984 38.989 69.4505 39.0098 69.4161C39.0307 69.3818 39.045 69.3584 39.0529 69.3462L39.8082 69.7918C39.7821 69.836 39.7521 69.8839 39.7182 69.9355C39.6843 69.987 39.6523 70.0472 39.6223 70.116C39.5923 70.1847 39.5668 70.2657 39.546 70.3591C39.5251 70.4524 39.5147 70.5616 39.5147 70.6869C39.5147 70.7728 39.5316 70.8606 39.5655 70.9502C39.5995 71.0399 39.6425 71.1239 39.6947 71.2025C39.7677 71.3179 39.8786 71.4162 40.0273 71.4972C40.176 71.5782 40.3567 71.6445 40.5694 71.6961C40.782 71.7477 41.0214 71.7857 41.2875 71.8103C41.5536 71.8348 41.8406 71.8471 42.1484 71.8471C42.4276 71.8471 42.6924 71.8373 42.9429 71.8176C43.1934 71.798 43.4262 71.7667 43.6414 71.7237C43.8567 71.6807 44.0511 71.6255 44.2246 71.558C44.3981 71.4904 44.5487 71.4076 44.6766 71.3093C44.7914 71.2259 44.884 71.1289 44.9544 71.0184C45.0249 70.9079 45.0836 70.7918 45.1305 70.6703C45.1775 70.5487 45.2166 70.4241 45.2479 70.2964C45.2792 70.1688 45.3132 70.046 45.3497 69.9281L46.2498 70.1565C46.2159 70.2891 46.18 70.4211 46.1422 70.5524C46.1043 70.6838 46.0867 70.8195 46.0893 70.9594V70.9557C46.0972 71.0908 46.1219 71.2136 46.1637 71.3241C46.2054 71.4346 46.27 71.5285 46.3574 71.6058C46.4448 71.6832 46.5563 71.7427 46.692 71.7845C46.8277 71.8262 46.9934 71.8471 47.189 71.8471C47.1996 71.8471 47.21 71.8474 47.2203 71.8479ZM50.3198 67.9465L49.5723 68.65L48.821 67.9428L49.5684 67.2393L50.3198 67.9465ZM42.3911 69.0552L41.7258 69.6813L41.0527 69.0515L41.718 68.4216L42.3911 69.0552ZM43.8704 69.0589L43.2051 69.6887L42.532 69.0552L43.1973 68.429L43.8704 69.0589ZM35.5917 67.2209L36.5974 66.9115C36.7279 67.8421 36.7957 68.7126 36.8009 69.5229C36.8062 70.8268 36.7866 71.8643 36.7422 72.6353L35.7169 72.7827C35.7952 71.6482 35.8187 70.6979 35.7873 69.9318C35.7456 68.9299 35.6804 68.0263 35.5917 67.2209ZM33.0127 73.9503L32.3474 74.5764L31.6743 73.9466L32.3396 73.3167L33.0127 73.9503ZM34.492 73.9539L33.8267 74.5838L33.1536 73.9503L33.8189 73.3241L34.492 73.9539ZM31.6996 71.8471H32.0343C32.1621 71.8471 32.2978 71.8428 32.4413 71.8342C32.5848 71.8256 32.7224 71.8084 32.8542 71.7826C32.9859 71.7569 33.1053 71.7213 33.2123 71.6758C33.3192 71.6304 33.3988 71.5721 33.451 71.5009C33.4901 71.4469 33.5103 71.3744 33.5117 71.2836C33.513 71.1927 33.4999 71.0933 33.4725 70.9852C33.4451 70.8772 33.4086 70.7636 33.3629 70.6445C33.3173 70.5254 33.2684 70.41 33.2162 70.2983C33.164 70.1866 33.1125 70.081 33.0616 69.9815C33.0107 69.8821 32.9683 69.798 32.9344 69.7292L33.8463 69.3056C33.9167 69.4235 33.9865 69.5653 34.0556 69.7311C34.1248 69.8968 34.1854 70.0681 34.2376 70.2449C34.2898 70.4217 34.3322 70.596 34.3648 70.7679C34.3974 70.9398 34.4137 71.092 34.4137 71.2246C34.4137 71.4628 34.3707 71.6752 34.2846 71.8618C34.1854 72.0779 34.0458 72.2553 33.8658 72.3941C33.6858 72.5328 33.4719 72.6366 33.224 72.7053C33.1483 72.725 33.0538 72.7403 32.9403 72.7514C32.8268 72.7624 32.7113 72.771 32.5939 72.7771C32.4765 72.7833 32.365 72.787 32.2593 72.7882C32.1537 72.7894 32.0721 72.79 32.0147 72.79H31.4121C31.3441 72.79 31.281 72.7786 31.2228 72.7557C31.012 72.7133 30.8481 72.6314 30.7311 72.5101L30.6489 72.4254L30.5667 72.5064C30.3737 72.6857 30.1284 72.7753 29.831 72.7753C29.6745 72.7753 29.4944 72.7434 29.2909 72.6795C29.1266 72.6304 28.9518 72.5617 28.7665 72.4733C28.5552 72.3726 28.3713 72.2719 28.2147 72.1712C28.1417 72.2744 28.0295 72.3787 27.8782 72.4843C27.5729 72.693 27.2272 72.7974 26.8411 72.7974C26.8089 72.7974 26.7778 72.7949 26.7478 72.7898C26.4639 72.7859 26.2041 72.7345 25.9684 72.6353C25.971 72.8391 25.9527 73.0479 25.9136 73.2615C25.8745 73.4751 25.8105 73.6802 25.7218 73.8766C25.6331 74.073 25.519 74.2554 25.3794 74.4236C25.2398 74.5918 25.0709 74.7323 24.8726 74.8453H24.8765C24.7539 74.9239 24.6222 74.9914 24.4813 75.0479C24.3404 75.1044 24.191 75.151 24.0332 75.1878C23.8753 75.2247 23.709 75.2535 23.5342 75.2744C23.3594 75.2953 23.1742 75.3106 22.9785 75.3204C22.5428 75.3204 22.169 75.2713 21.8573 75.1731C21.5455 75.0749 21.2748 74.9337 21.0452 74.7495C20.7687 74.5113 20.5626 74.2308 20.4269 73.9079C20.2912 73.585 20.2234 73.2443 20.2234 72.8858C20.2234 72.6795 20.2377 72.4849 20.2664 72.302C20.2951 72.119 20.3382 71.9392 20.3956 71.7624C20.453 71.5856 20.526 71.4051 20.6147 71.2209C20.7034 71.0368 20.8078 70.8391 20.9278 70.6279L21.7496 71.1878C21.6688 71.3253 21.5892 71.4757 21.5109 71.639C21.4327 71.8023 21.3642 71.9717 21.3055 72.1473C21.2468 72.3229 21.2037 72.499 21.1763 72.6758C21.1489 72.8526 21.147 73.0221 21.1704 73.1841C21.1809 73.2431 21.1998 73.3137 21.2272 73.3959C21.2546 73.4782 21.295 73.5635 21.3485 73.6519C21.402 73.7403 21.4698 73.8281 21.552 73.9153C21.6342 74.0024 21.734 74.0798 21.8514 74.1473C21.9688 74.2148 22.1064 74.2701 22.2643 74.3131C22.4221 74.356 22.6041 74.3775 22.8102 74.3775H22.8767C22.8898 74.3775 22.9028 74.3763 22.9159 74.3738C23.1768 74.3616 23.4194 74.337 23.6438 74.3002C23.8682 74.2633 24.0697 74.2062 24.2484 74.1289C24.4271 74.0516 24.5804 73.9509 24.7082 73.8269C24.8361 73.7029 24.9352 73.5488 25.0057 73.3646C25.0709 73.1927 25.0976 73.0104 25.0859 72.8177C25.0742 72.6249 25.035 72.4242 24.9685 72.2154C24.902 72.0067 24.8152 71.7906 24.7082 71.5672C24.6013 71.3437 24.4865 71.1166 24.3639 70.8858L25.2327 70.3664L25.5692 70.9742C25.6866 71.1927 25.8001 71.3609 25.9097 71.4788C26.0193 71.5966 26.1249 71.6832 26.2267 71.7384C26.3284 71.7937 26.4256 71.8256 26.5182 71.8342C26.6109 71.8428 26.6989 71.8471 26.7824 71.8471C26.8046 71.8471 26.8264 71.8483 26.8477 71.8508C27.1477 71.8489 27.4155 71.7163 27.6512 71.453C27.7425 71.3499 27.8351 71.2209 27.9291 71.0662C27.9865 70.968 28.0608 70.8305 28.1521 70.6537L28.25 70.4696C28.4065 70.1773 28.5748 69.9564 28.7548 69.8066C28.9661 69.6298 29.2205 69.5414 29.5179 69.5414C29.8754 69.5414 30.1897 69.6531 30.4611 69.8765C30.7689 70.1319 30.945 70.4818 30.9894 70.9263V70.9594L30.9933 70.9705V70.9778C30.9959 70.9852 30.9972 70.9938 30.9972 71.0036V71.022C30.9972 71.0294 30.9985 71.038 31.0011 71.0478C31.0038 71.0748 31.0064 71.1031 31.009 71.1325C31.0194 71.2283 31.0351 71.3155 31.0559 71.3941C31.1316 71.6887 31.3129 71.8373 31.5999 71.8397H31.6077C31.6395 71.8397 31.6701 71.8422 31.6996 71.8471ZM29.9641 71.8987C30.1545 71.8471 30.255 71.6961 30.2654 71.4456C30.2758 71.232 30.2315 71.0417 30.1323 70.8747C30.0463 70.7298 29.9354 70.6169 29.7997 70.5359C29.6562 70.4524 29.514 70.4241 29.3731 70.4511C29.287 70.4683 29.1618 70.6304 28.9974 70.9373L28.8565 71.2025C28.8409 71.2344 28.8265 71.2639 28.8135 71.2909C28.8005 71.313 28.7939 71.3253 28.7939 71.3278L28.7548 71.4162C29.3601 71.7427 29.741 71.906 29.8975 71.906C29.9236 71.906 29.9458 71.9036 29.9641 71.8987ZM23.8629 70.5653L23.1155 71.2688L22.3641 70.5616L23.1115 69.8581L23.8629 70.5653ZM16.3153 71.8471H16.7974C16.907 71.8471 17.0153 71.8428 17.1222 71.8342C17.2292 71.8256 17.3296 71.8078 17.4236 71.7808C17.5175 71.7538 17.6003 71.7157 17.6721 71.6666C17.7438 71.6175 17.7993 71.5537 17.8384 71.4751C17.8671 71.4211 17.8814 71.34 17.8814 71.232C17.8814 71.1682 17.8677 71.0785 17.8403 70.9631C17.813 70.8477 17.7751 70.72 17.7269 70.5801C17.6786 70.4401 17.6225 70.2952 17.5586 70.1454C17.4947 69.9956 17.4275 69.8557 17.357 69.7255L18.261 69.3056C18.3263 69.4456 18.3915 69.5942 18.4567 69.7513C18.5219 69.9085 18.58 70.0699 18.6309 70.2357C18.6817 70.4014 18.7228 70.5678 18.7541 70.7348C18.7855 70.9017 18.8011 71.065 18.8011 71.2246C18.8011 71.4628 18.7581 71.6752 18.672 71.8618C18.5728 72.0779 18.4332 72.2553 18.2532 72.3941C18.0732 72.5328 17.8593 72.6366 17.6114 72.7053C17.4627 72.7446 17.3185 72.7685 17.179 72.7771C17.0394 72.7857 16.9096 72.79 16.7896 72.79H16.2182C16.2105 72.79 16.2029 72.7899 16.1954 72.7896C15.9175 72.7854 15.6772 72.7505 15.4746 72.6851C15.2581 72.6151 15.0716 72.5089 14.915 72.3664C14.8211 72.278 14.7487 72.1829 14.6978 72.081C14.6469 71.9791 14.6098 71.8796 14.5863 71.7826C14.5628 71.6856 14.5491 71.5936 14.5452 71.5064C14.5413 71.4192 14.5393 71.3437 14.5393 71.2799C14.5419 71.2013 14.5452 71.0712 14.5491 70.8894C14.553 70.7077 14.555 70.488 14.555 70.2301C14.555 70.0754 14.5543 69.9103 14.553 69.7347C14.5517 69.5592 14.5498 69.3805 14.5471 69.1988C14.5445 69.0171 14.54 68.8348 14.5334 68.6519C14.5269 68.4689 14.5178 68.2927 14.5061 68.1233C14.4943 67.9539 14.48 67.7949 14.463 67.6463C14.446 67.4978 14.4258 67.3658 14.4023 67.2504L15.3846 66.9741C15.4133 67.1165 15.4381 67.2884 15.459 67.4898C15.4799 67.6911 15.4968 67.9054 15.5099 68.1325C15.5229 68.3596 15.5333 68.5917 15.5412 68.8286C15.549 69.0656 15.5529 69.2909 15.5529 69.5045C15.5529 69.5684 15.5536 69.6359 15.5549 69.7071C15.5562 69.7783 15.5575 69.8489 15.5588 69.9189C15.5601 69.9889 15.5607 70.057 15.5607 70.1233V70.3038C15.5607 70.3971 15.5601 70.4849 15.5588 70.5672C15.5575 70.6494 15.5562 70.7286 15.5549 70.8047C15.5536 70.8809 15.5523 70.9557 15.551 71.0294C15.5496 71.1031 15.549 71.178 15.549 71.2541C15.5464 71.3474 15.549 71.4352 15.5568 71.5175C15.5647 71.5997 15.5907 71.6605 15.6351 71.6998C15.729 71.7931 15.9234 71.841 16.2182 71.8434H16.2534C16.2744 71.8434 16.295 71.8447 16.3153 71.8471ZM18.1436 74.0644L17.3962 74.7679L16.6448 74.0608L17.3923 73.3573L18.1436 74.0644Z" fill="white"/>
<path id="Vector_3" d="M63.0308 71.8471H63.6374C63.7653 71.8471 63.9009 71.8428 64.0444 71.8342C64.1879 71.8256 64.3256 71.8084 64.4573 71.7826C64.5891 71.7569 64.7084 71.7213 64.8154 71.6758C64.9224 71.6304 65.0019 71.5721 65.0541 71.5009C65.0933 71.4469 65.1135 71.3744 65.1148 71.2836C65.1161 71.1927 65.103 71.0933 65.0756 70.9852C65.0482 70.8772 65.0117 70.7636 64.9661 70.6445C64.9204 70.5254 64.8715 70.41 64.8193 70.2983C64.7671 70.1866 64.7156 70.081 64.6647 69.9815C64.6138 69.8821 64.5715 69.798 64.5375 69.7292L65.4494 69.3056C65.5198 69.4235 65.5896 69.5653 65.6587 69.7311C65.7279 69.8968 65.7886 70.0681 65.8407 70.2449C65.8929 70.4217 65.9353 70.596 65.9679 70.7679C66.0005 70.9398 66.0168 71.092 66.0168 71.2246C66.0168 71.4628 65.9738 71.6752 65.8877 71.8618C65.7886 72.0779 65.649 72.2553 65.4689 72.3941C65.2889 72.5328 65.075 72.6366 64.8271 72.7053C64.7515 72.725 64.6569 72.7403 64.5434 72.7514C64.4299 72.7624 64.3145 72.771 64.1971 72.7771C64.0797 72.7833 63.9681 72.787 63.8625 72.7882C63.7568 72.7894 63.6753 72.79 63.6179 72.79H63.0152C63.0071 72.79 62.9991 72.7899 62.9912 72.7895C62.9713 72.7892 62.9493 72.7888 62.9252 72.7882C62.8756 72.787 62.8215 72.7814 62.7628 72.7716C62.7041 72.7618 62.6408 72.7464 62.573 72.7256C62.5051 72.7047 62.4386 72.6746 62.3734 72.6353C62.3395 72.9447 62.2397 73.2412 62.074 73.5248C61.9083 73.8085 61.699 74.0743 61.4459 74.3223C61.1928 74.5703 60.9091 74.7974 60.5947 75.0037C60.2803 75.2099 59.9574 75.3904 59.6261 75.5451L59.1878 74.6943C59.3704 74.6059 59.5537 74.5101 59.7376 74.407C59.9216 74.3039 60.097 74.194 60.264 74.0773C60.431 73.9607 60.5869 73.8373 60.7317 73.7072C60.8765 73.577 61.0017 73.4426 61.1074 73.3038C61.213 73.1651 61.2965 73.0221 61.3578 72.8747C61.4191 72.7274 61.4498 72.5764 61.4498 72.4217C61.4498 72.4021 61.4491 72.3818 61.4478 72.3609C61.4465 72.3401 61.4446 72.3198 61.442 72.3001V72.3038C61.4237 72.1663 61.393 72.027 61.35 71.8858C61.3069 71.7446 61.2606 71.6077 61.2111 71.4751C61.1615 71.3425 61.1119 71.2154 61.0624 71.0939C61.0128 70.9723 60.971 70.8624 60.9371 70.7642L61.8764 70.3959C61.9781 70.6832 62.074 70.9208 62.164 71.1086C62.254 71.2965 62.3447 71.445 62.436 71.5543C62.5273 71.6636 62.6206 71.7397 62.7158 71.7826C62.811 71.8256 62.916 71.8471 63.0308 71.8471ZM63.7274 74.628L63.0621 73.9981L63.7353 73.3683L64.4006 73.9945L63.7274 74.628ZM65.2067 74.6206L64.5415 73.9945L65.2146 73.3609L65.8799 73.9908L65.2067 74.6206ZM64.4749 74.4807L65.0854 75.0552L64.471 75.6335L63.8605 75.0589L64.4749 74.4807ZM56.0805 71.3425C56.1796 71.4014 56.299 71.4616 56.4386 71.523C56.5781 71.5844 56.7229 71.6402 56.873 71.6906C57.023 71.7409 57.1704 71.7814 57.3152 71.8121C57.46 71.8428 57.5872 71.8582 57.6968 71.8582C57.762 71.8582 57.85 71.8551 57.9609 71.8489C58.0718 71.8428 58.1807 71.8256 58.2877 71.7974C58.3947 71.7691 58.4873 71.7249 58.5655 71.6648C58.6438 71.6046 58.6843 71.5193 58.6869 71.4088C58.6895 71.3081 58.6608 71.1946 58.6008 71.0681C58.5408 70.9416 58.4599 70.8103 58.3581 70.674C58.2564 70.5377 58.139 70.4008 58.0059 70.2633C57.8729 70.1258 57.7346 69.9938 57.5911 69.8673C57.4476 69.7409 57.3034 69.6242 57.1586 69.5174C57.0138 69.4106 56.8788 69.3204 56.7536 69.2467L57.3367 68.4327C57.5767 68.5874 57.8135 68.7617 58.047 68.9557C58.2805 69.1497 58.4958 69.3566 58.6927 69.5764C58.8897 69.7961 59.0606 70.0251 59.2054 70.2633C59.3502 70.5015 59.4539 70.7421 59.5165 70.9852C59.5844 71.2578 59.5857 71.5095 59.5204 71.7403C59.4552 71.9711 59.3378 72.1694 59.1682 72.3351C58.9986 72.5009 58.7834 72.628 58.5225 72.7164C58.2616 72.8048 57.9694 72.8416 57.6459 72.8269C57.4737 72.8269 57.2989 72.8109 57.1215 72.779C56.9441 72.7471 56.7699 72.7047 56.599 72.6519C56.4281 72.5991 56.2638 72.5377 56.1059 72.4677C55.9481 72.3978 55.8013 72.3235 55.6656 72.2449L56.0805 71.3425ZM53.8224 67.2209L54.8282 66.9115C54.9586 67.8421 55.0264 68.7126 55.0317 69.5229C55.0369 70.8268 55.0173 71.8643 54.973 72.6353L53.9476 72.7827C54.0259 71.6482 54.0494 70.6979 54.0181 69.9318C53.9763 68.9299 53.9111 68.0263 53.8224 67.2209ZM47.2203 71.8479C47.2307 71.8474 47.2411 71.8471 47.2516 71.8471H48.0265C48.35 71.8471 48.6794 71.8183 49.0147 71.7605C49.3499 71.7028 49.6832 71.6267 50.0146 71.5322C50.3459 71.4376 50.6694 71.329 50.9851 71.2062C51.3008 71.0834 51.5995 70.957 51.8813 70.8268C51.6569 70.7802 51.4482 70.7182 51.2551 70.6408C51.0621 70.5635 50.8794 70.488 50.7073 70.4143C50.5351 70.3406 50.3694 70.2768 50.2102 70.2228C50.0511 70.1688 49.8933 70.1417 49.7367 70.1417C49.6454 70.1417 49.56 70.1571 49.4804 70.1878C49.4008 70.2185 49.3271 70.2572 49.2593 70.3038C49.1914 70.3505 49.1308 70.402 49.0773 70.4585C49.0238 70.515 48.9768 70.5696 48.9364 70.6224C48.896 70.6752 48.8627 70.7225 48.8366 70.7642C48.8105 70.806 48.7923 70.8354 48.7818 70.8526L47.9678 70.3554C48.0565 70.208 48.1622 70.065 48.2848 69.9263C48.4074 69.7875 48.5437 69.6635 48.6938 69.5543C48.8438 69.445 49.0062 69.3578 49.181 69.2927C49.3558 69.2277 49.541 69.1951 49.7367 69.1951C49.9376 69.1951 50.1372 69.2203 50.3355 69.2706C50.5338 69.321 50.7301 69.3842 50.9245 69.4603C51.1188 69.5365 51.3138 69.6193 51.5095 69.709C51.7052 69.7986 51.9028 69.8821 52.1024 69.9594C52.302 70.0368 52.5035 70.1018 52.7071 70.1546C52.9106 70.2074 53.1193 70.2351 53.3332 70.2375L53.251 71.1878C52.8858 71.3523 52.5049 71.5267 52.1083 71.7108C51.7117 71.895 51.2969 72.0656 50.8638 72.2228C50.4307 72.38 49.978 72.5113 49.5058 72.6169C49.0336 72.7225 48.5405 72.7802 48.0265 72.79H47.2516C47.2411 72.79 47.2307 72.7897 47.2203 72.7892C47.21 72.7897 47.1996 72.79 47.189 72.79H47.1577C46.9412 72.79 46.7429 72.7728 46.5629 72.7385C46.3828 72.7041 46.2185 72.6494 46.0698 72.5746C45.9211 72.4997 45.7887 72.4039 45.6725 72.2873C45.5564 72.1706 45.4553 72.03 45.3693 71.8655C44.6518 72.4892 43.5782 72.8011 42.1484 72.8011C41.337 72.7962 40.6633 72.7004 40.1271 72.5138C39.591 72.3272 39.1964 72.0423 38.9433 71.6593C38.8442 71.5021 38.7731 71.3388 38.73 71.1694C38.687 70.9999 38.6654 70.8342 38.6654 70.6721C38.6654 70.4732 38.6915 70.2817 38.7437 70.0975V70.1012C38.775 69.9809 38.8076 69.8759 38.8415 69.7863C38.8755 69.6967 38.9068 69.6212 38.9355 69.5598C38.9642 69.4984 38.989 69.4505 39.0098 69.4161C39.0307 69.3818 39.045 69.3584 39.0529 69.3462L39.8082 69.7918C39.7821 69.836 39.7521 69.8839 39.7182 69.9355C39.6843 69.987 39.6523 70.0472 39.6223 70.116C39.5923 70.1847 39.5668 70.2657 39.546 70.3591C39.5251 70.4524 39.5147 70.5616 39.5147 70.6869C39.5147 70.7728 39.5316 70.8606 39.5655 70.9502C39.5995 71.0399 39.6425 71.1239 39.6947 71.2025C39.7677 71.3179 39.8786 71.4162 40.0273 71.4972C40.176 71.5782 40.3567 71.6445 40.5694 71.6961C40.782 71.7477 41.0214 71.7857 41.2875 71.8103C41.5536 71.8348 41.8406 71.8471 42.1484 71.8471C42.4276 71.8471 42.6924 71.8373 42.9429 71.8176C43.1934 71.798 43.4262 71.7667 43.6414 71.7237C43.8567 71.6807 44.0511 71.6255 44.2246 71.558C44.3981 71.4904 44.5487 71.4076 44.6766 71.3093C44.7914 71.2259 44.884 71.1289 44.9544 71.0184C45.0249 70.9079 45.0836 70.7918 45.1305 70.6703C45.1775 70.5487 45.2166 70.4241 45.2479 70.2964C45.2792 70.1688 45.3132 70.046 45.3497 69.9281L46.2498 70.1565C46.2159 70.2891 46.18 70.4211 46.1422 70.5524C46.1043 70.6838 46.0867 70.8195 46.0893 70.9594V70.9557C46.0972 71.0908 46.1219 71.2136 46.1637 71.3241C46.2054 71.4346 46.27 71.5285 46.3574 71.6058C46.4448 71.6832 46.5563 71.7427 46.692 71.7845C46.8277 71.8262 46.9934 71.8471 47.189 71.8471C47.1996 71.8471 47.21 71.8474 47.2203 71.8479ZM50.3198 67.9465L49.5723 68.65L48.821 67.9428L49.5684 67.2393L50.3198 67.9465ZM42.3911 69.0552L41.7258 69.6813L41.0527 69.0515L41.718 68.4216L42.3911 69.0552ZM43.8704 69.0589L43.2051 69.6887L42.532 69.0552L43.1973 68.429L43.8704 69.0589ZM35.5917 67.2209L36.5974 66.9115C36.7279 67.8421 36.7957 68.7126 36.8009 69.5229C36.8062 70.8268 36.7866 71.8643 36.7422 72.6353L35.7169 72.7827C35.7952 71.6482 35.8187 70.6979 35.7873 69.9318C35.7456 68.9299 35.6804 68.0263 35.5917 67.2209ZM33.0127 73.9503L32.3474 74.5764L31.6743 73.9466L32.3396 73.3167L33.0127 73.9503ZM34.492 73.9539L33.8267 74.5838L33.1536 73.9503L33.8189 73.3241L34.492 73.9539ZM31.6996 71.8471H32.0343C32.1621 71.8471 32.2978 71.8428 32.4413 71.8342C32.5848 71.8256 32.7224 71.8084 32.8542 71.7826C32.9859 71.7569 33.1053 71.7213 33.2123 71.6758C33.3192 71.6304 33.3988 71.5721 33.451 71.5009C33.4901 71.4469 33.5103 71.3744 33.5117 71.2836C33.513 71.1927 33.4999 71.0933 33.4725 70.9852C33.4451 70.8772 33.4086 70.7636 33.3629 70.6445C33.3173 70.5254 33.2684 70.41 33.2162 70.2983C33.164 70.1866 33.1125 70.081 33.0616 69.9815C33.0107 69.8821 32.9683 69.798 32.9344 69.7292L33.8463 69.3056C33.9167 69.4235 33.9865 69.5653 34.0556 69.7311C34.1248 69.8968 34.1854 70.0681 34.2376 70.2449C34.2898 70.4217 34.3322 70.596 34.3648 70.7679C34.3974 70.9398 34.4137 71.092 34.4137 71.2246C34.4137 71.4628 34.3707 71.6752 34.2846 71.8618C34.1854 72.0779 34.0458 72.2553 33.8658 72.3941C33.6858 72.5328 33.4719 72.6366 33.224 72.7053C33.1483 72.725 33.0538 72.7403 32.9403 72.7514C32.8268 72.7624 32.7113 72.771 32.5939 72.7771C32.4765 72.7833 32.365 72.787 32.2593 72.7882C32.1537 72.7894 32.0721 72.79 32.0147 72.79H31.4121C31.3441 72.79 31.281 72.7786 31.2228 72.7557C31.012 72.7133 30.8481 72.6314 30.7311 72.5101L30.6489 72.4254L30.5667 72.5064C30.3737 72.6857 30.1284 72.7753 29.831 72.7753C29.6745 72.7753 29.4944 72.7434 29.2909 72.6795C29.1266 72.6304 28.9518 72.5617 28.7665 72.4733C28.5552 72.3726 28.3713 72.2719 28.2147 72.1712C28.1417 72.2744 28.0295 72.3787 27.8782 72.4843C27.5729 72.693 27.2272 72.7974 26.8411 72.7974C26.8089 72.7974 26.7778 72.7949 26.7478 72.7898C26.4639 72.7859 26.2041 72.7345 25.9684 72.6353C25.971 72.8391 25.9527 73.0479 25.9136 73.2615C25.8745 73.4751 25.8105 73.6802 25.7218 73.8766C25.6331 74.073 25.519 74.2554 25.3794 74.4236C25.2398 74.5918 25.0709 74.7323 24.8726 74.8453H24.8765C24.7539 74.9239 24.6222 74.9914 24.4813 75.0479C24.3404 75.1044 24.191 75.151 24.0332 75.1878C23.8753 75.2247 23.709 75.2535 23.5342 75.2744C23.3594 75.2953 23.1742 75.3106 22.9785 75.3204C22.5428 75.3204 22.169 75.2713 21.8573 75.1731C21.5455 75.0749 21.2748 74.9337 21.0452 74.7495C20.7687 74.5113 20.5626 74.2308 20.4269 73.9079C20.2912 73.585 20.2234 73.2443 20.2234 72.8858C20.2234 72.6795 20.2377 72.4849 20.2664 72.302C20.2951 72.119 20.3382 71.9392 20.3956 71.7624C20.453 71.5856 20.526 71.4051 20.6147 71.2209C20.7034 71.0368 20.8078 70.8391 20.9278 70.6279L21.7496 71.1878C21.6688 71.3253 21.5892 71.4757 21.5109 71.639C21.4327 71.8023 21.3642 71.9717 21.3055 72.1473C21.2468 72.3229 21.2037 72.499 21.1763 72.6758C21.1489 72.8526 21.147 73.0221 21.1704 73.1841C21.1809 73.2431 21.1998 73.3137 21.2272 73.3959C21.2546 73.4782 21.295 73.5635 21.3485 73.6519C21.402 73.7403 21.4698 73.8281 21.552 73.9153C21.6342 74.0024 21.734 74.0798 21.8514 74.1473C21.9688 74.2148 22.1064 74.2701 22.2643 74.3131C22.4221 74.356 22.6041 74.3775 22.8102 74.3775H22.8767C22.8898 74.3775 22.9028 74.3763 22.9159 74.3738C23.1768 74.3616 23.4194 74.337 23.6438 74.3002C23.8682 74.2633 24.0697 74.2062 24.2484 74.1289C24.4271 74.0516 24.5804 73.9509 24.7082 73.8269C24.8361 73.7029 24.9352 73.5488 25.0057 73.3646C25.0709 73.1927 25.0976 73.0104 25.0859 72.8177C25.0742 72.6249 25.035 72.4242 24.9685 72.2154C24.902 72.0067 24.8152 71.7906 24.7082 71.5672C24.6013 71.3437 24.4865 71.1166 24.3639 70.8858L25.2327 70.3664L25.5692 70.9742C25.6866 71.1927 25.8001 71.3609 25.9097 71.4788C26.0193 71.5966 26.1249 71.6832 26.2267 71.7384C26.3284 71.7937 26.4256 71.8256 26.5182 71.8342C26.6109 71.8428 26.6989 71.8471 26.7824 71.8471C26.8046 71.8471 26.8264 71.8483 26.8477 71.8508C27.1477 71.8489 27.4155 71.7163 27.6512 71.453C27.7425 71.3499 27.8351 71.2209 27.9291 71.0662C27.9865 70.968 28.0608 70.8305 28.1521 70.6537L28.25 70.4696C28.4065 70.1773 28.5748 69.9564 28.7548 69.8066C28.9661 69.6298 29.2205 69.5414 29.5179 69.5414C29.8754 69.5414 30.1897 69.6531 30.4611 69.8765C30.7689 70.1319 30.945 70.4818 30.9894 70.9263V70.9594L30.9933 70.9705V70.9778C30.9959 70.9852 30.9972 70.9938 30.9972 71.0036V71.022C30.9972 71.0294 30.9985 71.038 31.0011 71.0478C31.0038 71.0748 31.0064 71.1031 31.009 71.1325C31.0194 71.2283 31.0351 71.3155 31.0559 71.3941C31.1316 71.6887 31.3129 71.8373 31.5999 71.8397H31.6077C31.6395 71.8397 31.6701 71.8422 31.6996 71.8471ZM29.9641 71.8987C30.1545 71.8471 30.255 71.6961 30.2654 71.4456C30.2758 71.232 30.2315 71.0417 30.1323 70.8747C30.0463 70.7298 29.9354 70.6169 29.7997 70.5359C29.6562 70.4524 29.514 70.4241 29.3731 70.4511C29.287 70.4683 29.1618 70.6304 28.9974 70.9373L28.8565 71.2025C28.8409 71.2344 28.8265 71.2639 28.8135 71.2909C28.8005 71.313 28.7939 71.3253 28.7939 71.3278L28.7548 71.4162C29.3601 71.7427 29.741 71.906 29.8975 71.906C29.9236 71.906 29.9458 71.9036 29.9641 71.8987ZM23.8629 70.5653L23.1155 71.2688L22.3641 70.5616L23.1115 69.8581L23.8629 70.5653ZM16.3153 71.8471H16.7974C16.907 71.8471 17.0153 71.8428 17.1222 71.8342C17.2292 71.8256 17.3296 71.8078 17.4236 71.7808C17.5175 71.7538 17.6003 71.7157 17.6721 71.6666C17.7438 71.6175 17.7993 71.5537 17.8384 71.4751C17.8671 71.4211 17.8814 71.34 17.8814 71.232C17.8814 71.1682 17.8677 71.0785 17.8403 70.9631C17.813 70.8477 17.7751 70.72 17.7269 70.5801C17.6786 70.4401 17.6225 70.2952 17.5586 70.1454C17.4947 69.9956 17.4275 69.8557 17.357 69.7255L18.261 69.3056C18.3263 69.4456 18.3915 69.5942 18.4567 69.7513C18.5219 69.9085 18.58 70.0699 18.6309 70.2357C18.6817 70.4014 18.7228 70.5678 18.7541 70.7348C18.7855 70.9017 18.8011 71.065 18.8011 71.2246C18.8011 71.4628 18.7581 71.6752 18.672 71.8618C18.5728 72.0779 18.4332 72.2553 18.2532 72.3941C18.0732 72.5328 17.8593 72.6366 17.6114 72.7053C17.4627 72.7446 17.3185 72.7685 17.179 72.7771C17.0394 72.7857 16.9096 72.79 16.7896 72.79H16.2182C16.2105 72.79 16.2029 72.7899 16.1954 72.7896C15.9175 72.7854 15.6772 72.7505 15.4746 72.6851C15.2581 72.6151 15.0716 72.5089 14.915 72.3664C14.8211 72.278 14.7487 72.1829 14.6978 72.081C14.6469 71.9791 14.6098 71.8796 14.5863 71.7826C14.5628 71.6856 14.5491 71.5936 14.5452 71.5064C14.5413 71.4192 14.5393 71.3437 14.5393 71.2799C14.5419 71.2013 14.5452 71.0712 14.5491 70.8894C14.553 70.7077 14.555 70.488 14.555 70.2301C14.555 70.0754 14.5543 69.9103 14.553 69.7347C14.5517 69.5592 14.5498 69.3805 14.5471 69.1988C14.5445 69.0171 14.54 68.8348 14.5334 68.6519C14.5269 68.4689 14.5178 68.2927 14.5061 68.1233C14.4943 67.9539 14.48 67.7949 14.463 67.6463C14.446 67.4978 14.4258 67.3658 14.4023 67.2504L15.3846 66.9741C15.4133 67.1165 15.4381 67.2884 15.459 67.4898C15.4799 67.6911 15.4968 67.9054 15.5099 68.1325C15.5229 68.3596 15.5333 68.5917 15.5412 68.8286C15.549 69.0656 15.5529 69.2909 15.5529 69.5045C15.5529 69.5684 15.5536 69.6359 15.5549 69.7071C15.5562 69.7783 15.5575 69.8489 15.5588 69.9189C15.5601 69.9889 15.5607 70.057 15.5607 70.1233V70.3038C15.5607 70.3971 15.5601 70.4849 15.5588 70.5672C15.5575 70.6494 15.5562 70.7286 15.5549 70.8047C15.5536 70.8809 15.5523 70.9557 15.551 71.0294C15.5496 71.1031 15.549 71.178 15.549 71.2541C15.5464 71.3474 15.549 71.4352 15.5568 71.5175C15.5647 71.5997 15.5907 71.6605 15.6351 71.6998C15.729 71.7931 15.9234 71.841 16.2182 71.8434H16.2534C16.2744 71.8434 16.295 71.8447 16.3153 71.8471ZM18.1436 74.0644L17.3962 74.7679L16.6448 74.0608L17.3923 73.3573L18.1436 74.0644Z" fill="#222852"/>
<path id="Vector_4" fill-rule="evenodd" clip-rule="evenodd" d="M63.9063 83.8C64.5605 83.8 65.0907 84.3005 65.0907 84.9174V90.9254C65.0907 91.5424 64.5605 92.0428 63.9063 92.0428C63.2522 92.0428 62.722 91.5424 62.722 90.9254V84.9174C62.722 84.3005 63.2522 83.8 63.9063 83.8ZM23.7807 78.6239C23.834 82.7882 23.8606 84.8718 23.8606 84.8718V87.1802C23.8606 89.8596 21.5718 92.0396 18.7586 92.0396C15.945 92.0396 13.6563 89.8596 13.6563 87.1802V85.0024C13.6563 84.3855 14.1861 83.8851 14.8406 83.8851C15.4948 83.8851 16.025 84.3855 16.025 85.0024V87.1802C16.025 88.6274 17.2511 89.8053 18.7586 89.8053C20.2654 89.8053 21.4919 88.6274 21.4919 87.1802V84.9305L21.4119 78.6507C21.404 78.0338 21.9277 77.5276 22.5966 77.5201C23.2443 77.5201 23.7731 78.0114 23.7807 78.6239ZM47.7893 83.8H52.924C53.5781 83.8 54.1083 84.3005 54.1083 84.9174C54.1083 85.534 53.5781 86.0344 52.924 86.0344H47.7893V86.9914C47.7893 89.7748 45.3881 92.0394 42.4369 92.0394C39.4857 92.0394 37.0846 89.7748 37.0846 86.9914V85.0022C37.0846 84.3852 37.6145 83.8852 38.269 83.8852C38.9231 83.8852 39.4533 84.3852 39.4533 85.0022V86.9914C39.4533 88.5429 40.7919 89.805 42.4369 89.805C44.082 89.805 45.4206 88.5429 45.4206 86.9914V83.2938C45.4206 82.6769 45.9508 82.1768 46.6049 82.1768C47.2594 82.1768 47.7893 82.6769 47.7893 83.2938V83.8ZM28.3731 83.8H32.6678C33.322 83.8 33.8522 84.3005 33.8522 84.9174C33.8522 85.534 33.322 86.0344 32.6678 86.0344H27.2025C27.1214 86.0344 27.0418 86.0266 26.9651 86.012C26.9442 86.0079 26.9255 85.9994 26.9049 85.9943C26.8502 85.9807 26.7951 85.9675 26.7436 85.9471C26.7183 85.9372 26.696 85.9223 26.6715 85.9104C26.6279 85.8897 26.5833 85.8703 26.5429 85.8448C26.5191 85.8299 26.499 85.8102 26.4766 85.7939C26.4395 85.7664 26.4014 85.7402 26.3679 85.7093C26.3477 85.6903 26.3322 85.6682 26.3138 85.6481C26.2828 85.6145 26.2501 85.5819 26.2234 85.5445C26.2072 85.5221 26.196 85.497 26.1816 85.4735C26.1579 85.4348 26.1326 85.3974 26.1139 85.356C26.1017 85.3288 26.0948 85.2992 26.0851 85.271C26.0703 85.2303 26.0538 85.1905 26.0444 85.1477C26.0372 85.1161 26.0368 85.0825 26.0325 85.0502C26.0278 85.0105 26.0188 84.9717 26.0185 84.9306L25.9388 78.6508C25.9309 78.0339 26.4547 77.5277 27.1236 77.5202C27.7712 77.5202 28.2997 78.0115 28.3076 78.624L28.3731 83.8ZM58.6612 83.8C59.3153 83.8 59.8455 84.3005 59.8455 84.9174V90.9254C59.8455 91.5424 59.3153 92.0428 58.6612 92.0428C58.007 92.0428 57.4768 91.5424 57.4768 90.9254V84.9174C57.4768 84.3005 58.007 83.8 58.6612 83.8ZM42.4359 85.9668C42.1442 85.9668 41.856 85.8547 41.6507 85.661C41.4418 85.464 41.3229 85.1922 41.3229 84.917C41.3229 84.6418 41.4418 84.3701 41.6507 84.1764C42.0613 83.7857 42.8105 83.7823 43.2248 84.1764C43.4301 84.3701 43.549 84.6418 43.549 84.917C43.549 85.1922 43.4301 85.464 43.2248 85.661C43.0159 85.8547 42.7313 85.9668 42.4359 85.9668ZM63.9043 82.4574C63.6125 82.4574 63.3247 82.3453 63.119 82.1517C62.9137 81.9546 62.7912 81.6828 62.7912 81.4077C62.7912 81.1325 62.9137 80.8607 63.119 80.6671C63.3784 80.4225 63.7638 80.3103 64.124 80.3783C64.1964 80.3919 64.2645 80.4123 64.3329 80.4394C64.3977 80.4666 64.4629 80.4972 64.5242 80.5346C64.5854 80.5753 64.6431 80.6195 64.6931 80.6671C64.8988 80.8607 65.0177 81.1325 65.0177 81.4077C65.0177 81.6862 64.8988 81.9546 64.6931 82.1517C64.6431 82.1992 64.5854 82.2434 64.5242 82.2808C64.4629 82.3181 64.3977 82.3521 64.3329 82.3793C64.2645 82.4031 64.1928 82.4234 64.124 82.437C64.0519 82.4506 63.9763 82.4574 63.9043 82.4574ZM31.0903 90.475C31.1191 90.5395 31.1371 90.6041 31.1515 90.672C31.1659 90.7399 31.1767 90.8079 31.1767 90.8758C31.1767 90.9438 31.1659 91.0151 31.1515 91.0831C31.1371 91.1476 31.1191 91.2156 31.0903 91.2767C31.0614 91.3413 31.029 91.4024 30.9898 91.4602C30.9465 91.5179 30.8997 91.5689 30.8489 91.6198C30.7985 91.6674 30.7409 91.7116 30.6796 91.7489C30.6184 91.7863 30.5539 91.8203 30.4887 91.8475C30.4206 91.8712 30.3518 91.8916 30.2798 91.9052C30.2077 91.9188 30.1361 91.9256 30.0637 91.9256C29.9916 91.9256 29.916 91.9188 29.8439 91.9052C29.7759 91.8916 29.7035 91.8712 29.639 91.8475C29.5702 91.8203 29.5057 91.7863 29.4445 91.7489C29.3832 91.7116 29.3256 91.6674 29.2748 91.6198C29.2244 91.5689 29.1775 91.5179 29.1379 91.4602C29.0987 91.4024 29.0623 91.3413 29.0335 91.2767C29.0086 91.2156 28.9866 91.1476 28.9722 91.0831C28.9578 91.0151 28.951 90.9438 28.951 90.8758C28.951 90.8079 28.9578 90.7399 28.9722 90.672C28.9866 90.6041 29.0086 90.5395 29.0335 90.475C29.0623 90.4138 29.0987 90.3527 29.1379 90.2949C29.1775 90.2372 29.2244 90.1828 29.2748 90.1352C29.3256 90.0877 29.3832 90.0435 29.4445 90.0027C29.5057 89.9654 29.5702 89.9348 29.635 89.9076C29.7035 89.8804 29.7759 89.8601 29.8439 89.8465C29.988 89.8193 30.1361 89.8193 30.2798 89.8465C30.3518 89.8601 30.4206 89.8804 30.4887 89.9076C30.5539 89.9348 30.6184 89.9654 30.6796 90.0027C30.7409 90.0435 30.7985 90.0877 30.8489 90.1352C30.8997 90.1828 30.9465 90.2372 30.9898 90.2949C31.029 90.3527 31.0614 90.4138 31.0903 90.475ZM50.1915 87.8825H53.3768C53.889 87.8825 54.304 88.2743 54.304 88.7573C54.304 89.2404 53.889 89.6318 53.3768 89.6318H50.1915C49.6793 89.6318 49.2643 89.2404 49.2643 88.7573C49.2643 88.2743 49.6793 87.8825 50.1915 87.8825ZM31.6556 87.5324C32.1678 87.5324 32.5827 87.9241 32.5827 88.4072C32.5827 88.8902 32.1678 89.2816 31.6556 89.2816H28.4702C27.958 89.2816 27.5431 88.8902 27.5431 88.4072C27.5431 87.9241 27.958 87.5324 28.4702 87.5324H31.6556ZM15.0374 12.1681H29.422C30.6392 12.1681 31.2595 13.5471 30.4051 14.3569L16.0556 27.9167C15.1895 28.7375 13.7031 28.1684 13.7031 27.0193L13.6563 13.4595C13.6563 12.7481 14.2649 12.1681 15.0374 12.1681ZM63.7315 60.577H49.3259C48.1079 60.577 47.4871 59.198 48.3421 58.3882L62.6891 44.8284C63.5558 44.0076 65.0431 44.5767 65.0431 45.7258L65.0901 59.2856C65.1135 59.997 64.4928 60.577 63.7315 60.577ZM15.7967 48.8458L52.6358 14.1823C55.4898 11.4967 60.1087 11.4967 62.9502 14.1823C65.8042 16.8677 65.8042 21.2138 62.9502 23.8876L26.1112 58.5629C23.2697 61.2484 18.6382 61.2484 15.7967 58.5629C12.9428 55.8773 12.9428 51.5313 15.7967 48.8458Z" fill="#222852"/>
</g>
</g>
<defs>
<linearGradient id="paint0_linear_558_658" x1="0.797852" y1="0.0654297" x2="137.946" y2="10286.2" gradientUnits="userSpaceOnUse">
<stop stop-color="#FFEE00"/>
<stop offset="1" stop-color="#FFCE00"/>
</linearGradient>
<clipPath id="clip0_558_658">
<rect width="77.1517" height="102.869" fill="white" transform="translate(0.797852 0.0654297)"/>
</clipPath>
</defs>
</svg>
