<svg width="20" height="20" viewBox="0 0 20 20" fill="none" xmlns="http://www.w3.org/2000/svg">
<g id="basil:arrow-up-outline">
<path id="Vector" d="M8.77445 12.8914C8.83586 12.9486 8.88511 13.0176 8.91927 13.0943C8.95343 13.1709 8.9718 13.2537 8.97328 13.3376C8.97476 13.4215 8.95932 13.5049 8.92789 13.5827C8.89645 13.6605 8.84966 13.7312 8.79031 13.7906C8.73097 13.8499 8.66027 13.8967 8.58245 13.9281C8.50462 13.9596 8.42127 13.975 8.33735 13.9735C8.25343 13.9721 8.17067 13.9537 8.094 13.9195C8.01734 13.8854 7.94834 13.8361 7.89112 13.7747L4.55778 10.4414C4.44074 10.3242 4.375 10.1653 4.375 9.99971C4.375 9.83408 4.44074 9.67523 4.55778 9.55804L7.89112 6.22471C7.94833 6.1633 8.01734 6.11405 8.094 6.07989C8.17067 6.04573 8.25343 6.02736 8.33735 6.02588C8.42127 6.0244 8.50462 6.03984 8.58245 6.07127C8.66027 6.10271 8.73097 6.1495 8.79031 6.20884C8.84966 6.26819 8.89645 6.33889 8.92789 6.41671C8.95932 6.49454 8.97476 6.57789 8.97328 6.66181C8.9718 6.74573 8.95343 6.82849 8.91927 6.90516C8.88511 6.98182 8.83586 7.05082 8.77445 7.10804L6.50778 9.37471L14.5828 9.37471C14.7485 9.37471 14.9075 9.44056 15.0247 9.55777C15.1419 9.67498 15.2078 9.83395 15.2078 9.99971C15.2078 10.1655 15.1419 10.3244 15.0247 10.4417C14.9075 10.5589 14.7485 10.6247 14.5828 10.6247L6.50778 10.6247L8.77445 12.8914Z" fill="black"/>
</g>
</svg>
