<svg xmlns="http://www.w3.org/2000/svg" width="14" height="14" viewBox="0 0 14 14" fill="none">
  <g clip-path="url(#clip0_1008_5114)">
    <path fill-rule="evenodd" clip-rule="evenodd" d="M7.0013 0.729492C7.06447 0.729452 7.1269 0.743092 7.1843 0.769475C7.2417 0.795857 7.2927 0.834356 7.3338 0.882326L9.0838 2.92399C9.1593 3.01218 9.19668 3.12674 9.18771 3.24248C9.17873 3.35822 9.12415 3.46566 9.03597 3.54116C8.94778 3.61666 8.83322 3.65403 8.71748 3.64506C8.60174 3.63609 8.4943 3.58151 8.4188 3.49333L7.4388 2.34999V8.75033C7.4388 8.86636 7.39271 8.97764 7.31066 9.05968C7.22861 9.14173 7.11733 9.18783 7.0013 9.18783C6.88527 9.18783 6.77399 9.14173 6.69194 9.05968C6.6099 8.97764 6.5638 8.86636 6.5638 8.75033V2.34941L5.5838 3.49333C5.54642 3.53699 5.5008 3.57286 5.44955 3.5989C5.39831 3.62493 5.34243 3.64062 5.28513 3.64506C5.22782 3.6495 5.17019 3.64261 5.11555 3.62479C5.0609 3.60696 5.0103 3.57854 4.96664 3.54116C4.92297 3.50378 4.8871 3.45816 4.86106 3.40691C4.83503 3.35566 4.81934 3.29979 4.8149 3.24248C4.81046 3.18517 4.81735 3.12755 4.83518 3.0729C4.853 3.01826 4.88142 2.96766 4.9188 2.92399L6.6688 0.882326C6.7099 0.834356 6.76091 0.795857 6.81831 0.769475C6.8757 0.743092 6.93813 0.729452 7.0013 0.729492ZM4.0823 4.81399C4.19833 4.81337 4.30986 4.85887 4.39234 4.94048C4.47483 5.02209 4.52152 5.13313 4.52214 5.24916C4.52275 5.36519 4.47725 5.47672 4.39564 5.5592C4.31403 5.64169 4.203 5.68837 4.08697 5.68899C3.44939 5.69249 2.9973 5.70883 2.65372 5.77183C2.32355 5.83308 2.13164 5.93049 1.98989 6.07224C1.8283 6.23383 1.7233 6.46074 1.66555 6.88891C1.60664 7.32933 1.60547 7.91324 1.60547 8.75033V9.33366C1.60547 10.1713 1.60664 10.7552 1.66555 11.1957C1.7233 11.6238 1.82889 11.8502 1.98989 12.0123C2.15147 12.1733 2.3778 12.2783 2.80655 12.3361C3.24639 12.3956 3.83089 12.3962 4.66797 12.3962H9.33463C10.1717 12.3962 10.7556 12.3956 11.1966 12.3361C11.6248 12.2783 11.8511 12.1733 12.0127 12.0117C12.1743 11.8502 12.2793 11.6238 12.3371 11.1957C12.396 10.7552 12.3971 10.1713 12.3971 9.33366V8.75033C12.3971 7.91324 12.396 7.32933 12.3371 6.88833C12.2793 6.46074 12.1737 6.23383 12.0127 6.07224C11.8704 5.93049 11.6791 5.83308 11.3489 5.77183C11.0053 5.70883 10.5532 5.69249 9.91564 5.68899C9.85818 5.68869 9.80135 5.67707 9.74839 5.6548C9.69543 5.63253 9.64737 5.60004 9.60696 5.5592C9.56655 5.51836 9.53458 5.46996 9.51288 5.41676C9.49117 5.36356 9.48016 5.30661 9.48047 5.24916C9.48077 5.19171 9.49239 5.13488 9.51466 5.08191C9.53693 5.02895 9.56942 4.98089 9.61026 4.94048C9.6511 4.90007 9.6995 4.86811 9.7527 4.8464C9.8059 4.8247 9.86285 4.81369 9.9203 4.81399C10.5515 4.81749 11.0771 4.83266 11.507 4.91141C11.9491 4.99308 12.3254 5.14766 12.6316 5.45391C12.9828 5.80449 13.1333 6.24724 13.2045 6.77224C13.2721 7.27741 13.2721 7.92083 13.2721 8.71824V9.36574C13.2721 10.1637 13.2721 10.8066 13.2045 11.3123C13.1333 11.8373 12.9828 12.2795 12.6316 12.6307C12.2805 12.9818 11.8383 13.1323 11.3133 13.2035C10.8076 13.2712 10.1641 13.2712 9.36672 13.2712H4.63589C3.83847 13.2712 3.19505 13.2712 2.6893 13.2035C2.1643 13.1329 1.72214 12.9818 1.37097 12.6307C1.0198 12.2795 0.869302 11.8373 0.798719 11.3123C0.730469 10.8066 0.730469 10.1632 0.730469 9.36574V8.71824C0.730469 7.92083 0.730469 7.27741 0.798719 6.77166C0.868719 6.24666 1.02039 5.80449 1.37097 5.45333C1.67722 5.14766 2.05347 4.99249 2.49564 4.91141C2.92555 4.83266 3.45114 4.81749 4.0823 4.81399Z" fill="#EF7D13"/>
  </g>
  <defs>
    <clipPath id="clip0_1008_5114">
      <rect width="14" height="14" fill="white"/>
    </clipPath>
  </defs>
</svg>