<svg width="70" height="70" viewBox="0 0 70 70" fill="none" xmlns="http://www.w3.org/2000/svg">
<g id="fluent:sport-basketball-24-regular">
<path id="Vector" d="M37.7445 64.0383C44.5044 63.4089 50.8303 60.4317 55.6237 55.6238C67.0132 44.2342 67.0132 25.7658 55.6237 14.3763C44.2341 2.98668 25.7658 2.98668 14.3762 14.3763C2.98659 25.7658 2.98659 44.2342 14.3762 55.6238C17.2959 58.5499 20.8057 60.8204 24.6716 62.2839C28.5376 63.7474 32.671 64.3703 36.7966 64.1113C37.1141 64.1572 37.4378 64.1323 37.7445 64.0383ZM10.4328 31.6575C11.0565 27.0255 12.9834 22.6659 15.9891 19.0867L31.9083 35L28.7349 38.1733C25.6666 35.6942 22.2483 34.3583 18.9903 33.4833C17.0945 32.9758 15.2103 32.6083 13.4866 32.2788L13.4399 32.2671C12.3695 32.0629 11.3691 31.8675 10.4358 31.6575H10.4328ZM10.2316 36.0908C11.0074 36.2542 11.792 36.4058 12.5649 36.5575L12.6058 36.5633C14.3645 36.9046 16.1116 37.2429 17.8528 37.7096C20.6324 38.4563 23.2808 39.5063 25.617 41.2913L15.992 50.9163C12.4897 46.7448 10.4645 41.5326 10.2316 36.0908ZM28.7203 44.3742C30.6891 46.8883 31.7537 49.6417 32.5033 52.4621C32.8678 53.8329 33.1478 55.1688 33.4308 56.5221L33.6758 57.6742C33.8216 58.3742 33.982 59.0771 34.157 59.7771C28.6287 59.5969 23.3208 57.5664 19.0837 54.0108L28.7203 44.3742ZM38.6166 59.5292C38.366 58.6127 38.1443 57.6887 37.9516 56.7583L37.727 55.6879C37.4412 54.32 37.1291 52.8296 36.7324 51.3363C35.8545 48.0463 34.5099 44.52 31.8324 41.2621L34.9999 38.0946L50.9162 54.0108C47.4084 56.9569 43.1494 58.8678 38.6166 59.5292ZM38.0916 35L41.6266 31.4679C44.8758 34.2154 48.2766 35.7263 51.4412 36.7938C52.7449 37.2371 54.0574 37.6163 55.2649 37.9692C55.7287 38.1033 56.1778 38.2317 56.6066 38.36C57.6274 38.6692 58.5637 38.9667 59.4183 39.2963C58.6716 43.5786 56.8061 47.5874 54.0108 50.9163L38.0916 35ZM57.8578 34.1688L56.3937 33.74C55.2026 33.4026 54.0191 33.0389 52.8441 32.6492C50.0908 31.7158 47.3374 30.4908 44.7328 28.3617L54.0078 19.0838C57.7022 23.4846 59.7474 29.0354 59.7916 34.7813C59.1499 34.5625 58.4995 34.3613 57.8578 34.1688ZM50.9162 15.9892L41.6383 25.2671C39.5091 22.6625 38.2812 19.9092 37.3508 17.1558C36.9597 15.9803 36.596 14.7958 36.2599 13.6033C36.1141 13.1192 35.977 12.6321 35.8283 12.1421C35.6358 11.5004 35.4374 10.85 35.2187 10.2083C40.9641 10.2517 46.5149 12.2958 50.9162 15.9892ZM33.2033 18.5558C34.2737 21.7204 35.7816 25.1242 38.532 28.3733L34.9999 31.9083L19.0837 15.9892C22.4126 13.1938 26.4214 11.3283 30.7037 10.5817C31.0333 11.4363 31.3308 12.3696 31.637 13.3933L32.0308 14.735C32.3808 15.9425 32.7599 17.2521 33.2033 18.5558Z" fill="#EC3A4C"/>
</g>
</svg>
