<svg width="96" height="96" viewBox="0 0 96 96" fill="none" xmlns="http://www.w3.org/2000/svg">
<g id="streamline:ecology-science-planet-solar-system-ring-planet-saturn-space-astronomy" clip-path="url(#clip0_834_12)">
<g id="Group">
<path id="Vector" d="M26.676 42.2121C13.0683 47.9812 4.50424 54.8147 5.80363 59.6641C7.63376 66.4942 28.2222 66.834 51.5446 60.4383C74.8671 54.0427 92.6005 43.7274 90.7704 36.8973C89.6241 32.4827 80.4647 30.9473 67.8897 31.8278" stroke="#EC3A4C" stroke-width="4" stroke-linecap="round" stroke-linejoin="round"/>
<path id="Vector_2" d="M75.4902 51.8625C75.0947 56.0333 73.6573 60.0378 71.3102 63.5081C68.963 66.9784 65.7814 69.8032 62.0577 71.7229C58.3339 73.6427 54.1874 74.5958 49.9991 74.4948C45.8108 74.3938 41.715 73.2418 38.0881 71.1448C35.1889 69.4724 32.6503 67.2414 30.6194 64.581M25.7676 52.4845C25.0478 46.5098 26.5073 40.476 29.8781 35.4908C33.2489 30.5056 38.3048 26.9035 44.1177 25.346C49.9305 23.7884 56.1101 24.3799 61.5219 27.0118C66.9337 29.6438 71.2146 34.1395 73.5785 39.6736" stroke="#EC3A4C" stroke-width="4" stroke-linecap="round" stroke-linejoin="round"/>
</g>
</g>
<defs>
<clipPath id="clip0_834_12">
<rect width="70" height="70" fill="white" transform="translate(35.1895 0.189087) rotate(30)"/>
</clipPath>
</defs>
</svg>
