<svg width="70" height="70" viewBox="0 0 70 70" fill="none" xmlns="http://www.w3.org/2000/svg">
<g id="fluent-emoji-high-contrast:artist-palette">
<g id="Group">
<path id="Vector" d="M52.5 41.5625C54.2405 41.5625 55.9097 40.8711 57.1404 39.6404C58.3711 38.4097 59.0625 36.7405 59.0625 35C59.0625 33.2595 58.3711 31.5903 57.1404 30.3596C55.9097 29.1289 54.2405 28.4375 52.5 28.4375C50.7595 28.4375 49.0903 29.1289 47.8596 30.3596C46.6289 31.5903 45.9375 33.2595 45.9375 35C45.9375 36.7405 46.6289 38.4097 47.8596 39.6404C49.0903 40.8711 50.7595 41.5625 52.5 41.5625ZM52.5 39.375C51.3397 39.375 50.2269 38.9141 49.4064 38.0936C48.5859 37.2731 48.125 36.1603 48.125 35C48.125 33.8397 48.5859 32.7269 49.4064 31.9064C50.2269 31.0859 51.3397 30.625 52.5 30.625C53.6603 30.625 54.7731 31.0859 55.5936 31.9064C56.4141 32.7269 56.875 33.8397 56.875 35C56.875 36.1603 56.4141 37.2731 55.5936 38.0936C54.7731 38.9141 53.6603 39.375 52.5 39.375ZM36.0938 19.1406C36.0938 20.446 35.5752 21.6979 34.6522 22.6209C33.7291 23.5439 32.4772 24.0625 31.1719 24.0625C29.8665 24.0625 28.6146 23.5439 27.6916 22.6209C26.7686 21.6979 26.25 20.446 26.25 19.1406C26.25 17.8353 26.7686 16.5834 27.6916 15.6603C28.6146 14.7373 29.8665 14.2188 31.1719 14.2188C32.4772 14.2188 33.7291 14.7373 34.6522 15.6603C35.5752 16.5834 36.0938 17.8353 36.0938 19.1406ZM22.9688 27.8906C22.9688 28.537 22.8414 29.177 22.5941 29.7741C22.3467 30.3713 21.9842 30.9139 21.5272 31.3709C21.0701 31.828 20.5275 32.1905 19.9304 32.4378C19.3332 32.6852 18.6932 32.8125 18.0469 32.8125C17.4005 32.8125 16.7605 32.6852 16.1634 32.4378C15.5662 32.1905 15.0236 31.828 14.5666 31.3709C14.1095 30.9139 13.747 30.3713 13.4997 29.7741C13.2523 29.177 13.125 28.537 13.125 27.8906C13.125 26.5853 13.6436 25.3334 14.5666 24.4103C15.4896 23.4873 16.7415 22.9688 18.0469 22.9688C19.3522 22.9688 20.6041 23.4873 21.5272 24.4103C22.4502 25.3334 22.9688 26.5853 22.9688 27.8906ZM18.0469 48.125C18.6932 48.125 19.3332 47.9977 19.9304 47.7503C20.5275 47.503 21.0701 47.1405 21.5272 46.6834C21.9842 46.2264 22.3467 45.6838 22.5941 45.0866C22.8414 44.4895 22.9688 43.8495 22.9688 43.2031C22.9688 42.5568 22.8414 41.9168 22.5941 41.3196C22.3467 40.7225 21.9842 40.1799 21.5272 39.7228C21.0701 39.2658 20.5275 38.9033 19.9304 38.6559C19.3332 38.4086 18.6932 38.2812 18.0469 38.2812C16.7415 38.2812 15.4896 38.7998 14.5666 39.7228C13.6436 40.6459 13.125 41.8978 13.125 43.2031C13.125 44.5085 13.6436 45.7604 14.5666 46.6834C15.4896 47.6064 16.7415 48.125 18.0469 48.125ZM35 53.0469C35 54.3522 34.4814 55.6041 33.5584 56.5272C32.6354 57.4502 31.3835 57.9688 30.0781 57.9688C28.7728 57.9688 27.5209 57.4502 26.5978 56.5272C25.6748 55.6041 25.1562 54.3522 25.1562 53.0469C25.1562 51.7415 25.6748 50.4896 26.5978 49.5666C27.5209 48.6436 28.7728 48.125 30.0781 48.125C31.3835 48.125 32.6354 48.6436 33.5584 49.5666C34.4814 50.4896 35 51.7415 35 53.0469Z" fill="#EC3A4C"/>
<path id="Vector_2" d="M35.4373 67.8125C29.3306 67.3666 23.4336 65.3944 18.2873 62.0769C10.7659 57.6706 5.29979 50.4604 3.08855 42.0284C2.1355 38.3574 1.92455 34.5331 2.46807 30.7796C3.0116 27.026 4.29865 23.4186 6.25387 20.1687C14.4723 6.60625 32.8954 2.59656 49.1026 10.8587C58.7692 15.7916 65.9989 24.4016 67.517 32.7994C68.0215 35.1165 67.9647 37.5207 67.3513 39.8115C66.7379 42.1022 65.5857 44.2131 63.9907 45.9681C59.2701 51.1219 53.1779 51.0497 48.7504 50.9994H48.7351C45.7929 50.9469 43.9554 50.9994 43.5157 51.8744C43.6689 52.5481 43.9357 53.1956 44.3032 53.7841C45.408 55.3378 45.9629 57.2156 45.8801 59.1202C45.7973 61.0248 45.0815 62.8474 43.8461 64.2994C42.8088 65.4919 41.5105 66.4292 40.0522 67.0385C38.5938 67.6478 37.0146 67.9126 35.4373 67.8125ZM31.782 10.9375C27.4648 10.7908 23.184 11.7731 19.3626 13.7871C15.5412 15.8012 12.3114 18.7775 9.9923 22.4219C8.33756 25.1787 7.24958 28.2381 6.79207 31.4207C6.33457 34.6033 6.51674 37.8452 7.32793 40.9566C9.25144 48.261 13.9957 54.5033 20.5186 58.3122C27.8489 62.6609 37.2179 65.5309 40.4489 61.5344C42.1704 59.4169 41.6236 58.1109 40.4226 55.7987C39.8032 54.9612 39.404 53.9815 39.2618 52.9495C39.1197 51.9175 39.239 50.8663 39.6089 49.8925C41.3173 46.5237 45.117 46.5609 48.7964 46.6112C52.8104 46.6659 57.3648 46.7206 60.7664 43.0041C61.8903 41.736 62.6983 40.2199 63.1241 38.5797C63.5499 36.9395 63.5815 35.2219 63.2164 33.5672C61.952 26.5672 55.4814 19.0137 47.1207 14.7547C42.3809 12.2947 37.1264 10.9905 31.7864 10.9484L31.782 10.9375Z" fill="#EC3A4C"/>
</g>
</g>
</svg>
