<svg width="30" height="30" viewBox="0 0 30 30" fill="none" xmlns="http://www.w3.org/2000/svg">
<g id="clarity:arrow-line">
<g clip-path="url(#clip0_934_5)">
<rect y="30" width="30" height="30" rx="15" transform="rotate(-90 0 30)" fill="#EEEEEE"/>
<path id="Vector" d="M13.6199 9.17725L8 14.9704L13.6199 20.7636C13.6706 20.832 13.7351 20.8883 13.809 20.9289C13.8828 20.9695 13.9643 20.9933 14.0479 20.9988C14.1315 21.0043 14.2153 20.9912 14.2936 20.9606C14.3718 20.93 14.4428 20.8825 14.5016 20.8213C14.5604 20.7601 14.6057 20.6867 14.6345 20.606C14.6632 20.5253 14.6747 20.4392 14.6682 20.3536C14.6616 20.2679 14.6372 20.1847 14.5966 20.1096C14.556 20.0344 14.5001 19.9691 14.4327 19.918L10.2281 15.5701L21.4152 15.5701C21.5703 15.5701 21.719 15.507 21.8287 15.3945C21.9384 15.282 22 15.1295 22 14.9704C22 14.8114 21.9384 14.6588 21.8287 14.5464C21.719 14.4339 21.5703 14.3707 21.4152 14.3707L10.2281 14.3707L14.4327 10.0228C14.5421 9.90991 14.6032 9.75707 14.6027 9.59793C14.6021 9.43879 14.5399 9.28639 14.4298 9.17425C14.3197 9.06212 14.1707 8.99944 14.0155 9C13.8603 9.00057 13.7117 9.06433 13.6023 9.17725L13.6199 9.17725Z" fill="black"/>
</g>
</g>
<defs>
<clipPath id="clip0_934_5">
<rect y="30" width="30" height="30" rx="15" transform="rotate(-90 0 30)" fill="white"/>
</clipPath>
</defs>
</svg>
