<svg width="67" height="67" viewBox="0 0 67 67" fill="none" xmlns="http://www.w3.org/2000/svg">
<g id="devicon:twitter">
<path id="Vector" d="M60.1409 19.832C60.1817 20.4229 60.1817 21.0134 60.1817 21.6096C60.1817 39.7729 46.3541 60.7208 21.0705 60.7208V60.7104C13.601 60.7208 6.28645 58.5814 0 54.5474C1.08613 54.6783 2.1775 54.7437 3.27148 54.7463C9.46224 54.7513 15.4749 52.6749 20.3434 48.8508C17.4749 48.7966 14.6951 47.8474 12.3926 46.1359C10.0901 44.4243 8.37998 42.036 7.50138 39.3049C9.56216 39.7027 11.6852 39.6205 13.7078 39.0678C7.29462 37.7723 2.68105 32.138 2.68105 25.5945V25.4202C4.5928 26.4852 6.73248 27.0753 8.9199 27.1407C2.87891 23.104 1.01809 15.0687 4.6654 8.78693C8.11637 13.0334 12.422 16.5064 17.3027 18.9805C22.1833 21.4546 27.5298 22.8743 32.9949 23.1474C32.4501 20.8018 32.5308 18.3542 33.2287 16.0495C33.9266 13.7448 35.2174 11.6637 36.972 10.0144C42.5084 4.80985 51.2157 5.0768 56.4198 10.6106C59.4982 10.0027 62.4504 8.87406 65.1491 7.27315C64.1229 10.456 61.9756 13.1578 59.1066 14.8761C61.8314 14.5548 64.4924 13.8252 67 12.7117C65.1553 15.4742 62.8325 17.8854 60.1409 19.832Z" fill="#1D9BF0"/>
</g>
</svg>
