<svg xmlns="http://www.w3.org/2000/svg" width="20" height="20"
                                        viewBox="0 0 20 20" fill="none">
                                        <path
                                            d="M7.50033 11.6666L8.11699 11.7691C8.13188 11.6796 8.12708 11.5879 8.10295 11.5004C8.07881 11.4129 8.0359 11.3318 7.97722 11.2625C7.91853 11.1933 7.84547 11.1377 7.76312 11.0995C7.68076 11.0614 7.59109 11.0416 7.50033 11.0416V11.6666ZM16.667 11.6666V12.2916C16.8328 12.2916 16.9917 12.2258 17.1089 12.1086C17.2261 11.9914 17.292 11.8324 17.292 11.6666H16.667ZM15.0003 2.70831H5.53366V3.95831H15.0003V2.70831ZM4.53366 12.2916H7.50033V11.0416H4.53366V12.2916ZM6.88366 11.5641L6.21199 15.5933L7.44533 15.7991L8.11699 11.7691L6.88366 11.5641ZM7.65033 17.2916H7.82866V16.0416H7.65116L7.65033 17.2916ZM10.4295 15.9L12.5253 12.7558L11.4853 12.0625L9.38949 15.2066L10.4295 15.9ZM13.392 12.2916H16.667V11.0416H13.392V12.2916ZM17.292 11.6666V4.99998H16.042V11.6666H17.292ZM3.28616 4.54998L2.28616 9.54998L3.51116 9.79581L4.51116 4.79581L3.28616 4.55081V4.54998ZM12.5253 12.7558C12.6204 12.6131 12.7493 12.4969 12.9005 12.4159C13.0516 12.3349 13.2205 12.2925 13.392 12.2925V11.0425C12.6253 11.0425 11.9103 11.425 11.4853 12.0625L12.5253 12.7558ZM6.21199 15.5933C6.17727 15.8022 6.18844 16.0169 6.24473 16.221C6.30102 16.4251 6.40108 16.6145 6.53795 16.7761C6.67482 16.9376 6.84523 17.0674 7.03732 17.1564C7.22942 17.2455 7.4386 17.2916 7.65033 17.2916L7.65116 16.0416C7.62095 16.0416 7.59029 16.0349 7.56291 16.0222C7.53552 16.0094 7.51124 15.9909 7.49174 15.9678C7.47224 15.9447 7.45798 15.9177 7.44997 15.8886C7.44196 15.8595 7.44037 15.8289 7.44533 15.7991L6.21199 15.5933ZM4.53366 11.0425C3.87533 11.0425 3.38366 10.4408 3.51199 9.79665L2.28616 9.55081C2.21984 9.88324 2.2281 10.2271 2.31033 10.5559C2.39256 10.8848 2.54672 11.1913 2.76169 11.4534C2.97667 11.7154 3.24711 11.9266 3.55352 12.0715C3.85993 12.2165 4.19469 12.2917 4.53366 12.2916V11.0416V11.0425ZM5.53366 2.70831C5.0039 2.70821 4.49047 2.89248 4.08072 3.22825C3.67096 3.56401 3.39018 4.03137 3.28616 4.55081L4.51116 4.79665C4.5584 4.56032 4.68612 4.34767 4.87257 4.19496C5.05902 4.04224 5.29265 3.95807 5.53366 3.95831V2.70831ZM7.82866 17.2916C8.3431 17.2916 8.84958 17.1654 9.30314 16.9226C9.7567 16.6799 10.1433 16.3289 10.4287 15.9008L9.38949 15.2066C9.21821 15.4636 8.98611 15.6751 8.71382 15.8208C8.44152 15.9664 8.13747 16.0418 7.82866 16.0416V17.2916ZM15.0003 3.95831C15.5753 3.95831 16.042 4.42498 16.042 4.99998H17.292C17.292 4.39219 17.0505 3.8093 16.6208 3.37953C16.191 2.94976 15.6081 2.70831 15.0003 2.70831V3.95831Z"
                                            fill="#333333" />
                                        <path d="M13.334 11.6667V3.33341" stroke="#333333" stroke-width="1.25" />
                                    </svg>