<svg width="110" height="111" viewBox="0 0 110 111" fill="none" xmlns="http://www.w3.org/2000/svg">
<g id="emojione:flag-for-germany">
<g id="Group 11">
<path id="Vector" d="M17.2577 42.4699L16.7846 43.8041H18.2002H91.4614H92.877L92.4039 42.4699C86.9599 27.1168 72.2234 16 54.8308 16C37.4381 16 22.7017 27.1168 17.2577 42.4699Z" fill="#3E4347" stroke="white" stroke-width="2"/>
<path id="Vector_2" d="M92.4048 68.9399L92.8729 67.6082H91.4614H18.2002H16.7886L17.2568 68.9399C22.7018 84.428 37.442 95.4123 54.8308 95.4123C72.2196 95.4123 86.9598 84.428 92.4048 68.9399Z" fill="#FFE62E" stroke="white" stroke-width="2"/>
<path id="Vector_3" d="M18.2004 41.8041H17.4949L17.2583 42.4688C15.796 46.5767 15 51.0768 15 55.7062C15 60.3356 15.796 64.8357 17.2583 68.9436L17.4949 69.6083H18.2004H91.4616H92.1671L92.4037 68.9436C93.866 64.8357 94.662 60.3356 94.662 55.7062C94.662 51.0768 93.866 46.5767 92.4037 42.4688L92.1671 41.8041H91.4616H18.2004Z" fill="#EC3A4C" stroke="white" stroke-width="2"/>
</g>
</g>
</svg>
