<svg width="20" height="20" viewBox="0 0 20 20" fill="none" xmlns="http://www.w3.org/2000/svg">
<g id="fluent:attach-20-filled">
<path id="Vector" d="M5.28082 10.609L10.5848 5.30503C10.8402 5.04968 11.1435 4.84713 11.4772 4.70896C11.8109 4.57079 12.1685 4.4997 12.5297 4.49974C12.8909 4.49979 13.2485 4.57097 13.5821 4.70923C13.9158 4.84749 14.219 5.05011 14.4743 5.30553C14.7297 5.56096 14.9322 5.86417 15.0704 6.19787C15.2086 6.53157 15.2797 6.88921 15.2796 7.25039C15.2796 7.61156 15.2084 7.96919 15.0701 8.30285C14.9319 8.63651 14.7292 8.93968 14.4738 9.19503L8.10982 15.559C7.87524 15.7936 7.55708 15.9254 7.22532 15.9254C6.89357 15.9254 6.57541 15.7936 6.34082 15.559C6.10624 15.3245 5.97445 15.0063 5.97445 14.6745C5.97445 14.3428 6.10624 14.0246 6.34082 13.79L11.9978 8.13303C12.1303 7.99086 12.2024 7.80281 12.199 7.60851C12.1956 7.41421 12.1169 7.22883 11.9794 7.09141C11.842 6.954 11.6566 6.87529 11.4623 6.87186C11.268 6.86843 11.08 6.94055 10.9378 7.07303L5.28082 12.73C4.76498 13.2459 4.47518 13.9455 4.47518 14.675C4.47518 15.4046 4.76498 16.1042 5.28082 16.62C5.79667 17.1359 6.49631 17.4257 7.22582 17.4257C7.95534 17.4257 8.65498 17.1359 9.17082 16.62L15.5338 10.255C16.3155 9.45491 16.7503 8.37886 16.7438 7.26029C16.7372 6.14171 16.29 5.0708 15.499 4.27983C14.7081 3.48886 13.6371 3.04162 12.5186 3.03511C11.4 3.02859 10.3239 3.46333 9.52382 4.24503L4.22082 9.54803C4.08834 9.69021 4.01622 9.87826 4.01965 10.0726C4.02308 10.2669 4.10179 10.4522 4.2392 10.5897C4.37661 10.7271 4.562 10.8058 4.7563 10.8092C4.9506 10.8126 5.13865 10.7405 5.28082 10.608V10.609Z" fill="white"/>
</g>
</svg>
