<svg width="29" height="29" viewBox="0 0 29 29" fill="none" xmlns="http://www.w3.org/2000/svg">
<g id="basil:twitter-outline">
<path id="Vector" fill-rule="evenodd" clip-rule="evenodd" d="M18.3031 4.56736C18.8969 4.46586 19.5608 4.43203 20.1861 4.5382C21.3 4.72635 22.332 5.2436 23.1494 6.02336C23.6814 6.03503 24.2052 5.93003 24.6684 5.7807C25.1161 5.63471 25.5458 5.43864 25.9494 5.1962L25.9599 5.1892C26.1279 5.07726 26.3295 5.02686 26.5304 5.04654C26.7313 5.06622 26.9192 5.15476 27.0623 5.29717C27.2054 5.43957 27.2949 5.62708 27.3155 5.82789C27.3361 6.02871 27.2867 6.23049 27.1756 6.39903C26.9341 6.76653 26.5969 7.4222 26.2201 8.1572L26.0393 8.50836C25.8234 8.92836 25.6018 9.35303 25.3953 9.71703C25.2658 9.9457 25.1269 10.1779 24.9869 10.3785V10.6982C25.0013 12.6099 24.6347 14.5054 23.9086 16.274C23.1825 18.0425 22.1115 19.6487 20.758 20.9989C19.4044 22.3491 17.7955 23.4161 16.0252 24.1378C14.2548 24.8595 12.3585 25.2213 10.4468 25.2022C7.67644 25.2047 4.96442 24.4066 2.63709 22.9039C2.47074 22.7963 2.34582 22.6354 2.28278 22.4476C2.21974 22.2598 2.22231 22.0561 2.29006 21.8699C2.3578 21.6838 2.48672 21.5261 2.65573 21.4227C2.82474 21.3193 3.02382 21.2764 3.22042 21.3009C4.82793 21.493 6.45719 21.2337 7.92558 20.5519C7.20917 20.2262 6.56843 19.7549 6.04418 19.1679C5.51993 18.581 5.12365 17.8914 4.88058 17.1429C4.83427 16.9996 4.82572 16.8467 4.85577 16.6992C4.88581 16.5516 4.95343 16.4143 5.05208 16.3005L5.06375 16.2889C4.47153 15.7612 3.99691 15.115 3.6707 14.392C3.34448 13.669 3.17398 12.8855 3.17025 12.0924V12.0317C3.17017 11.8396 3.23329 11.6528 3.34989 11.5002C3.46649 11.3475 3.63008 11.2375 3.81542 11.187C3.42036 10.3988 3.21538 9.52892 3.21692 8.6472C3.21626 7.64756 3.47773 6.66523 3.97525 5.7982C4.04594 5.67512 4.1455 5.57108 4.26536 5.49506C4.38521 5.41904 4.52177 5.37331 4.66323 5.36183C4.8047 5.35035 4.94684 5.37345 5.07739 5.42915C5.20794 5.48484 5.32298 5.57146 5.41258 5.68153C7.45331 8.19562 10.377 9.83564 13.5863 10.2665C13.5584 9.21675 13.8232 8.17992 14.3511 7.27209C14.879 6.36426 15.6491 5.62124 16.5753 5.1262C17.0443 4.87653 17.6649 4.67703 18.3043 4.56736H18.3031ZM5.14542 13.3734C5.37197 14.011 5.76018 14.5788 6.27205 15.0214C6.78393 15.4639 7.40193 15.766 8.06558 15.898C8.25679 15.9361 8.42979 16.037 8.55715 16.1846C8.6845 16.3322 8.7589 16.5181 8.76855 16.7129C8.7782 16.9076 8.72254 17.1 8.61041 17.2594C8.49827 17.4189 8.33609 17.5364 8.14958 17.5932C7.83225 17.69 7.50675 17.7565 7.17658 17.795C7.53504 18.2574 7.9925 18.6336 8.51539 18.8961C9.03827 19.1586 9.6133 19.3006 10.1983 19.3117C10.3787 19.3151 10.5536 19.3742 10.6992 19.4809C10.8447 19.5876 10.9537 19.7367 11.0112 19.9078C11.0687 20.0789 11.0719 20.2635 11.0203 20.4365C10.9688 20.6094 10.865 20.7622 10.7233 20.8739C9.50671 21.8311 8.09297 22.5065 6.58392 22.8514C7.83326 23.2513 9.1373 23.454 10.4491 23.4522H10.4596C12.1396 23.4699 13.8063 23.1527 15.3623 22.5189C16.9183 21.8852 18.3324 20.9477 19.522 19.7613C20.7116 18.5749 21.6528 17.1632 22.2907 15.6089C22.9285 14.0546 23.2502 12.3888 23.2369 10.7087V10.0845C23.2367 9.87207 23.3139 9.6668 23.4539 9.50703C23.5356 9.41486 23.6756 9.20253 23.8739 8.8537C24.0606 8.5247 24.2682 8.12803 24.4841 7.7092L24.5226 7.6322C23.9132 7.76934 23.2856 7.80755 22.6641 7.74536C22.4539 7.72247 22.2591 7.62425 22.1157 7.46886C21.529 6.83266 20.7477 6.40919 19.8944 6.26486C19.464 6.20398 19.0266 6.21384 18.5994 6.29403C18.183 6.35885 17.7787 6.48588 17.4001 6.67086C16.6367 7.07873 16.0303 7.72847 15.676 8.51815C15.3217 9.30784 15.2395 10.1928 15.4424 11.0342C15.4744 11.1665 15.475 11.3044 15.4442 11.437C15.4135 11.5696 15.3523 11.6932 15.2654 11.798C15.1785 11.9028 15.0684 11.9858 14.9438 12.0406C14.8192 12.0953 14.6835 12.1202 14.5476 12.1134C10.9631 11.9321 7.57425 10.4237 5.04042 7.88186C4.99119 8.13439 4.96658 8.39109 4.96692 8.64836V8.6507C4.96561 9.29323 5.12321 9.92613 5.42568 10.493C5.72816 11.0599 6.16613 11.5432 6.70058 11.8999C6.85753 12.0055 6.97602 12.1592 7.03828 12.3378C7.10054 12.5164 7.10322 12.7105 7.04592 12.8908C6.98863 13.0711 6.87444 13.2279 6.72047 13.3379C6.5665 13.4478 6.38105 13.5049 6.19192 13.5005C5.83982 13.4908 5.48944 13.449 5.14542 13.3734Z" fill="white"/>
</g>
</svg>
