<svg width="37" height="37" viewBox="0 0 37 37" fill="none" xmlns="http://www.w3.org/2000/svg">
<g id="iconoir:youtube">
<rect width="37" height="37" rx="3.89" fill="#25262A"/>
<g id="Group">
<path id="Vector" d="M21.7434 18.7228L17.4434 21.1799V16.2656L21.7434 18.7228Z" fill="white" stroke="white" stroke-width="1.5" stroke-linecap="round" stroke-linejoin="round"/>
<path id="Vector_2" d="M7 19.5915V17.8531C7 14.2963 7 12.5174 8.11186 11.3735C9.22495 10.2285 10.9769 10.1794 14.4796 10.0799C16.1382 10.0332 17.8336 10 19.2858 10C20.7367 10 22.4322 10.0332 24.092 10.0799C27.5946 10.1794 29.3466 10.2285 30.4585 11.3735C31.5715 12.5174 31.5715 14.2976 31.5715 17.8531V19.5915C31.5715 23.1495 31.5715 24.9272 30.4597 26.0723C29.3466 27.2161 27.5959 27.2664 24.092 27.3647C22.4334 27.4126 20.738 27.4458 19.2858 27.4458C17.6834 27.441 16.0812 27.414 14.4796 27.3647C10.9769 27.2664 9.22495 27.2173 8.11186 26.0723C7 24.9272 7 23.1482 7 19.5927V19.5915Z" stroke="white" stroke-width="1.5"/>
</g>
</g>
</svg>
