<svg width="29" height="29" viewBox="0 0 29 29" fill="none" xmlns="http://www.w3.org/2000/svg">
<g id="mdi:instagram">
<path id="Vector" d="M9.76667 3.00049H19.5667C23.3 3.00049 26.3333 6.03382 26.3333 9.76716V19.5672C26.3333 21.3618 25.6204 23.0829 24.3514 24.3519C23.0824 25.6209 21.3613 26.3338 19.5667 26.3338H9.76667C6.03333 26.3338 3 23.3005 3 19.5672V9.76716C3 7.97252 3.71291 6.2514 4.98191 4.9824C6.25091 3.7134 7.97204 3.00049 9.76667 3.00049ZM9.53333 5.33382C8.41942 5.33382 7.35114 5.77632 6.56349 6.56397C5.77583 7.35163 5.33333 8.41991 5.33333 9.53382V19.8005C5.33333 22.1222 7.21167 24.0005 9.53333 24.0005H19.8C20.9139 24.0005 21.9822 23.558 22.7699 22.7703C23.5575 21.9827 24 20.9144 24 19.8005V9.53382C24 7.21216 22.1217 5.33382 19.8 5.33382H9.53333ZM20.7917 7.08382C21.1784 7.08382 21.5494 7.23747 21.8229 7.51096C22.0964 7.78445 22.25 8.15538 22.25 8.54216C22.25 8.92893 22.0964 9.29986 21.8229 9.57335C21.5494 9.84684 21.1784 10.0005 20.7917 10.0005C20.4049 10.0005 20.034 9.84684 19.7605 9.57335C19.487 9.29986 19.3333 8.92893 19.3333 8.54216C19.3333 8.15538 19.487 7.78445 19.7605 7.51096C20.034 7.23747 20.4049 7.08382 20.7917 7.08382ZM14.6667 8.83382C16.2138 8.83382 17.6975 9.4484 18.7915 10.5424C19.8854 11.6363 20.5 13.1201 20.5 14.6672C20.5 16.2143 19.8854 17.698 18.7915 18.7919C17.6975 19.8859 16.2138 20.5005 14.6667 20.5005C13.1196 20.5005 11.6358 19.8859 10.5419 18.7919C9.44792 17.698 8.83333 16.2143 8.83333 14.6672C8.83333 13.1201 9.44792 11.6363 10.5419 10.5424C11.6358 9.4484 13.1196 8.83382 14.6667 8.83382ZM14.6667 11.1672C13.7384 11.1672 12.8482 11.5359 12.1918 12.1923C11.5354 12.8487 11.1667 13.7389 11.1667 14.6672C11.1667 15.5954 11.5354 16.4857 12.1918 17.142C12.8482 17.7984 13.7384 18.1672 14.6667 18.1672C15.5949 18.1672 16.4852 17.7984 17.1415 17.142C17.7979 16.4857 18.1667 15.5954 18.1667 14.6672C18.1667 13.7389 17.7979 12.8487 17.1415 12.1923C16.4852 11.5359 15.5949 11.1672 14.6667 11.1672Z" fill="white"/>
</g>
</svg>
