<svg width="28" height="28" viewBox="0 0 28 28" fill="none" xmlns="http://www.w3.org/2000/svg">
<g id="formkit:bookmark">
<rect width="28" height="28" rx="5" fill="white" fill-opacity="0.8"/>
<path id="Vector" d="M19.3454 21.9983C19.0527 21.9983 18.7727 21.9185 18.5054 21.7587L14.3182 19.1766C14.2193 19.1177 14.1074 19.0867 13.9936 19.0867C13.8798 19.0867 13.768 19.1177 13.6691 19.1766L9.48181 21.7587C8.96 22.0782 8.34909 22.0782 7.82727 21.772C7.30545 21.4659 7 20.8936 7 20.268V7.99646C7 6.89175 7.85273 6 8.90909 6H19.0909C20.1473 6 21 6.89175 21 7.99646V20.268C21.0011 20.4945 20.9596 20.719 20.8776 20.9286C20.7957 21.1382 20.675 21.3288 20.5225 21.4896C20.37 21.6503 20.1886 21.778 19.9888 21.8653C19.789 21.9526 19.5747 21.9978 19.3582 21.9983H19.3454ZM14 17.7392C14.3309 17.7392 14.6745 17.8324 14.9673 18.0187L19.1545 20.6008C19.32 20.7073 19.4727 20.6407 19.5363 20.6008C19.6 20.5609 19.7273 20.4677 19.7273 20.2547V7.99646C19.7273 7.62379 19.4473 7.33097 19.0909 7.33097H8.90909C8.55272 7.33097 8.27273 7.62379 8.27273 7.99646V20.268C8.27273 20.481 8.4 20.5742 8.46363 20.6141C8.52727 20.654 8.66727 20.7206 8.84545 20.6141L13.0327 18.032C13.3382 17.8457 13.6691 17.7525 14 17.7525V17.7392Z" fill="black"/>
</g>
</svg>
