<svg width="42" height="42" viewBox="0 0 42 42" fill="none" xmlns="http://www.w3.org/2000/svg">
<g id="Group 37117">
<rect id="Rectangle 4266" width="41.5" height="41.5" rx="8" fill="#EEF0F2"/>
<g id="Group 36811">
<path id="Vector" d="M19.5547 12.8909C19.5547 12.3386 20.0024 11.8909 20.5547 11.8909C21.107 11.8909 21.5547 12.3386 21.5547 12.8909V28.8909C21.5547 29.4432 21.107 29.8909 20.5547 29.8909C20.0024 29.8909 19.5547 29.4432 19.5547 28.8909V12.8909Z" fill="#EC3A4C"/>
<path id="Vector_2" d="M11.5547 20.8909C11.5547 20.3386 12.0024 19.8909 12.5547 19.8909H28.5547C29.107 19.8909 29.5547 20.3386 29.5547 20.8909C29.5547 21.4432 29.107 21.8909 28.5547 21.8909H12.5547C12.0024 21.8909 11.5547 21.4432 11.5547 20.8909Z" fill="#EC3A4C"/>
</g>
</g>
</svg>
