<svg width="20" height="20" viewBox="0 0 20 20" fill="none" xmlns="http://www.w3.org/2000/svg">
<g id="iconoir:coin">
<g id="Group">
<path id="Vector" d="M10.0013 18.3337C14.6038 18.3337 18.3346 14.6028 18.3346 10.0003C18.3346 5.39783 14.6038 1.66699 10.0013 1.66699C5.3988 1.66699 1.66797 5.39783 1.66797 10.0003C1.66797 14.6028 5.3988 18.3337 10.0013 18.3337Z" stroke="black" stroke-width="1.25" stroke-linecap="round" stroke-linejoin="round"/>
<path id="Vector_2" d="M12.5 7.08398C11.9292 6.51315 10.9242 6.11648 10 6.09148M10 6.09148C8.9 6.06148 7.91667 6.55898 7.91667 7.91732C7.91667 10.4173 12.5 9.16732 12.5 11.6673C12.5 13.0932 11.28 13.7057 10 13.6598M10 6.09148V4.58398M7.5 12.5007C8.03667 13.2173 9.03583 13.6257 10 13.6598M10 13.6598V15.4173" stroke="black" stroke-width="1.25" stroke-linecap="round" stroke-linejoin="round"/>
</g>
</g>
</svg>
