<svg width="48" height="48" viewBox="0 0 48 48" fill="none" xmlns="http://www.w3.org/2000/svg">
<g id="iconoir:youtube">
<rect width="48" height="48" rx="3.89" fill="white"/>
<g id="Group">
<path id="Vector" d="M28.2071 24.2892L22.6287 27.4769V21.1016L28.2071 24.2892Z" fill="white" stroke="#EC3A4C" stroke-width="2" stroke-linecap="round" stroke-linejoin="round"/>
<path id="Vector_2" d="M9.08105 25.4162V23.1609C9.08105 18.5468 9.08105 16.2389 10.5235 14.755C11.9675 13.2696 14.2403 13.2058 18.7843 13.0767C20.936 13.0162 23.1354 12.9731 25.0194 12.9731C26.9017 12.9731 29.1012 13.0162 31.2544 13.0767C35.7984 13.2058 38.0712 13.2696 39.5136 14.755C40.9577 16.2389 40.9577 18.5484 40.9577 23.1609V25.4162C40.9577 30.0319 40.9577 32.3382 39.5152 33.8236C38.0712 35.3075 35.8 35.3728 31.2544 35.5003C29.1027 35.5625 26.9033 35.6055 25.0194 35.6055C22.9406 35.5993 20.8621 35.5642 18.7843 35.5003C14.2403 35.3728 11.9675 35.3091 10.5235 33.8236C9.08105 32.3382 9.08105 30.0303 9.08105 25.4178V25.4162Z" stroke="#EC3A4C" stroke-width="2"/>
</g>
</g>
</svg>
