<svg xmlns="http://www.w3.org/2000/svg" width="20" height="20" viewBox="0 0 20 20" fill="none">
<path d="M12.4997 8.33335L11.883 8.23085C11.8681 8.32038 11.8729 8.41208 11.8971 8.49957C11.9212 8.58706 11.9641 8.66825 12.0228 8.73748C12.0815 8.80672 12.1545 8.86234 12.2369 8.90048C12.3192 8.93862 12.4089 8.95837 12.4997 8.95835V8.33335ZM3.33301 8.33335V7.70835C3.16725 7.70835 3.00828 7.7742 2.89107 7.89141C2.77386 8.00862 2.70801 8.16759 2.70801 8.33335H3.33301ZM4.99967 17.2917H14.4663V16.0417H4.99967V17.2917ZM15.4663 7.70835H12.4997V8.95835H15.4663V7.70835ZM13.1163 8.43585L13.788 4.40669L12.5547 4.20085L11.883 8.23085L13.1163 8.43585ZM12.3497 2.70835H12.1713V3.95835H12.3488L12.3497 2.70835ZM9.57051 4.10002L7.47467 7.24419L8.51467 7.93752L10.6105 4.79335L9.57051 4.10002ZM6.60801 7.70835H3.33301V8.95835H6.60801V7.70835ZM2.70801 8.33335V15H3.95801V8.33335H2.70801ZM16.7138 15.45L17.7138 10.45L16.4888 10.2042L15.4888 15.2042L16.7138 15.4492V15.45ZM7.47467 7.24419C7.37959 7.38692 7.25073 7.50314 7.09955 7.58411C6.94836 7.66509 6.77951 7.70748 6.60801 7.70752V8.95752C7.37467 8.95752 8.08967 8.57502 8.51467 7.93752L7.47467 7.24419ZM13.788 4.40669C13.8227 4.19783 13.8116 3.98308 13.7553 3.77897C13.699 3.57487 13.5989 3.38546 13.462 3.22393C13.3252 3.06239 13.1548 2.9326 12.9627 2.84356C12.7706 2.75453 12.5614 2.70839 12.3497 2.70835L12.3488 3.95835C12.379 3.95843 12.4097 3.96507 12.4371 3.97782C12.4645 3.99057 12.4888 4.00912 12.5083 4.03219C12.5278 4.05526 12.542 4.08229 12.55 4.11141C12.558 4.14054 12.5596 4.17106 12.5547 4.20085L13.788 4.40669ZM15.4663 8.95752C16.1247 8.95752 16.6163 9.55919 16.488 10.2034L17.7138 10.4492C17.7802 10.1168 17.7719 9.77294 17.6897 9.44409C17.6074 9.11524 17.4533 8.80873 17.2383 8.54665C17.0233 8.28457 16.7529 8.07344 16.4465 7.92848C16.1401 7.78352 15.8053 7.70834 15.4663 7.70835V8.95835V8.95752ZM14.4663 17.2917C14.9961 17.2918 15.5095 17.1075 15.9193 16.7718C16.329 16.436 16.6098 15.9686 16.7138 15.4492L15.4888 15.2034C15.4416 15.4397 15.3139 15.6523 15.1274 15.805C14.941 15.9578 14.7073 16.0419 14.4663 16.0417V17.2917ZM12.1713 2.70835C11.6569 2.70839 11.1504 2.8346 10.6969 3.07737C10.2433 3.32014 9.85669 3.67113 9.57134 4.09919L10.6105 4.79335C10.7818 4.5364 11.0139 4.3249 11.2862 4.17923C11.5585 4.03356 11.8625 3.95824 12.1713 3.95835V2.70835ZM4.99967 16.0417C4.42467 16.0417 3.95801 15.575 3.95801 15H2.70801C2.70801 15.6078 2.94945 16.1907 3.37922 16.6205C3.80899 17.0502 4.39189 17.2917 4.99967 17.2917V16.0417Z" fill="#333333"/>
<path d="M6.66602 8.33325V16.6666" stroke="#333333" stroke-width="1.25"/>
</svg>