<svg width="20" height="20" viewBox="0 0 20 20" fill="none" xmlns="http://www.w3.org/2000/svg">
<g id="ph:arrow-up-duotone">
<g id="Group">
<path id="Vector" opacity="0.2" d="M4.375 11.25H15.625L10 16.875L4.375 11.25Z" fill="#EC3A4C"/>
<path id="Vector_2" d="M3.9333 11.6922L9.5583 17.3172C9.61634 17.3753 9.68527 17.4214 9.76115 17.4528C9.83702 17.4843 9.91835 17.5005 10.0005 17.5005C10.0826 17.5005 10.1639 17.4843 10.2398 17.4528C10.3157 17.4214 10.3846 17.3753 10.4427 17.3172L16.0677 11.6922C16.1552 11.6048 16.2148 11.4934 16.2389 11.3721C16.2631 11.2508 16.2507 11.125 16.2034 11.0108C16.156 10.8965 16.0758 10.7988 15.973 10.7302C15.8701 10.6615 15.7492 10.6249 15.6255 10.625H10.6255V3.125C10.6255 2.95924 10.5596 2.80027 10.4424 2.68305C10.3252 2.56584 10.1662 2.5 10.0005 2.5C9.83472 2.5 9.67575 2.56584 9.55854 2.68305C9.44133 2.80027 9.37548 2.95924 9.37548 3.125V10.625H4.37548C4.2518 10.6249 4.13087 10.6615 4.028 10.7302C3.92512 10.7988 3.84494 10.8965 3.7976 11.0108C3.75025 11.125 3.73787 11.2508 3.76203 11.3721C3.78618 11.4934 3.84579 11.6048 3.9333 11.6922ZM14.1169 11.875L10.0005 15.9914L5.88408 11.875H14.1169Z" fill="#EC3A4C"/>
</g>
</g>
</svg>
