<svg xmlns="http://www.w3.org/2000/svg" width="20" height="20" viewBox="0 0 20 20" fill="none">
  <path d="M11.5405 13.2252C11.703 13.0626 11.7811 12.8663 11.7746 12.636C11.7675 12.4058 11.6827 12.2094 11.5202 12.0469L10.0372 10.5638H16.2538C16.484 10.5638 16.6769 10.4858 16.8324 10.3298C16.9884 10.1743 17.0664 9.98142 17.0664 9.75117C17.0664 9.52093 16.9884 9.32779 16.8324 9.17177C16.6769 9.01629 16.484 8.93854 16.2538 8.93854H10.0372L11.5405 7.43518C11.703 7.27265 11.7843 7.07979 11.7843 6.85658C11.7843 6.63284 11.703 6.4397 11.5405 6.27718C11.378 6.11465 11.1849 6.03339 10.9611 6.03339C10.7379 6.03339 10.545 6.11465 10.3825 6.27718L7.47737 9.18233C7.3961 9.2636 7.33841 9.35163 7.30428 9.44644C7.27069 9.54124 7.25389 9.64282 7.25389 9.75117C7.25389 9.85953 7.27069 9.9611 7.30428 10.0559C7.33841 10.1507 7.3961 10.2388 7.47737 10.32L10.4028 13.2455C10.5518 13.3945 10.7379 13.469 10.9611 13.469C11.1849 13.469 11.378 13.3877 11.5405 13.2252ZM15.4411 17.0648C15.8881 17.0648 16.2708 16.9058 16.5894 16.5878C16.9074 16.2693 17.0664 15.8865 17.0664 15.4396V13.0017C17.0664 12.7715 16.9884 12.5783 16.8324 12.4223C16.6769 12.2668 16.484 12.1891 16.2538 12.1891C16.0235 12.1891 15.8304 12.2668 15.6744 12.4223C15.5189 12.5783 15.4411 12.7715 15.4411 13.0017V15.4396H4.06432V4.06276H15.4411V6.50065C15.4411 6.7309 15.5189 6.92376 15.6744 7.07925C15.8304 7.23527 16.0235 7.31328 16.2538 7.31328C16.484 7.31328 16.6769 7.23527 16.8324 7.07925C16.9884 6.92376 17.0664 6.7309 17.0664 6.50065V4.06276C17.0664 3.61581 16.9074 3.23307 16.5894 2.91451C16.2708 2.5965 15.8881 2.4375 15.4411 2.4375H4.06432C3.61737 2.4375 3.23462 2.5965 2.91607 2.91451C2.59806 3.23307 2.43906 3.61581 2.43906 4.06276V15.4396C2.43906 15.8865 2.59806 16.2693 2.91607 16.5878C3.23462 16.9058 3.61737 17.0648 4.06432 17.0648H15.4411Z" fill="black"/>
</svg>