<svg width="20" height="20" viewBox="0 0 20 20" fill="none" xmlns="http://www.w3.org/2000/svg">
<g id="material-symbols:compare-arrows-rounded">
<path id="Vector" d="M12.7503 11.0833L9.75033 8.08333C9.66699 8 9.60811 7.90972 9.57366 7.8125C9.53922 7.71528 9.52172 7.61111 9.52116 7.5C9.52116 7.38889 9.53866 7.28472 9.57366 7.1875C9.60866 7.09028 9.66755 7 9.75033 6.91666L12.7503 3.91666C12.917 3.75 13.1114 3.66666 13.3337 3.66666C13.5559 3.66666 13.7503 3.75 13.917 3.91666C14.0837 4.08333 14.167 4.28139 14.167 4.51083C14.167 4.74028 14.0837 4.93805 13.917 5.10416L12.3545 6.66666H17.5003C17.7364 6.66666 17.9345 6.74666 18.0945 6.90666C18.2545 7.06666 18.3342 7.26444 18.3337 7.5C18.3337 7.73611 18.2537 7.93416 18.0937 8.09416C17.9337 8.25416 17.7359 8.33389 17.5003 8.33333H12.3545L13.917 9.89583C14.0837 10.0625 14.167 10.2569 14.167 10.4792C14.167 10.7014 14.0837 10.8958 13.917 11.0625C13.7503 11.2292 13.5595 11.3194 13.3445 11.3333C13.1295 11.3472 12.9314 11.2639 12.7503 11.0833ZM6.08366 16.0625C6.25033 16.2292 6.44477 16.3161 6.66699 16.3233C6.88922 16.3306 7.08366 16.2506 7.25033 16.0833L10.2503 13.0833C10.3337 13 10.3926 12.9097 10.427 12.8125C10.4614 12.7153 10.4789 12.6111 10.4795 12.5C10.4795 12.3889 10.462 12.2847 10.427 12.1875C10.392 12.0903 10.3331 12 10.2503 11.9167L7.25033 8.91666C7.08366 8.75 6.88922 8.66666 6.66699 8.66666C6.44477 8.66666 6.25033 8.75 6.08366 8.91666C5.91699 9.08333 5.83366 9.28139 5.83366 9.51083C5.83366 9.74027 5.91699 9.93805 6.08366 10.1042L7.64616 11.6667H2.50033C2.26422 11.6667 2.06616 11.7467 1.90616 11.9067C1.74616 12.0667 1.66644 12.2644 1.667 12.5C1.667 12.7361 1.747 12.9342 1.907 13.0942C2.067 13.2542 2.26477 13.3339 2.50033 13.3333H7.64616L6.08366 14.8958C5.91699 15.0625 5.83366 15.2569 5.83366 15.4792C5.83366 15.7014 5.91699 15.8958 6.08366 16.0625Z" fill="#EC3A4C"/>
</g>
</svg>
