<svg width="15" height="15" viewBox="0 0 15 15" fill="none" xmlns="http://www.w3.org/2000/svg">
<g id="material-symbols:mode-night-outline">
<path id="Vector" d="M5.9375 2.5H5.60938C5.50521 2.5 5.40625 2.51042 5.3125 2.53125C5.90625 3.21875 6.36708 3.98708 6.695 4.83625C7.02292 5.68542 7.18708 6.57333 7.1875 7.5C7.1875 8.42708 7.02333 9.31521 6.695 10.1644C6.36667 11.0135 5.90583 11.7817 5.3125 12.4688C5.40625 12.4896 5.50521 12.5 5.60938 12.5H5.9375C7.32292 12.5 8.50271 12.0131 9.47688 11.0394C10.451 10.0656 10.9379 8.88583 10.9375 7.5C10.9375 6.11458 10.4506 4.93479 9.47688 3.96062C8.50313 2.98646 7.32333 2.49958 5.9375 2.5ZM5.9375 1.25C6.80208 1.25 7.61458 1.41417 8.375 1.7425C9.13542 2.07083 9.79688 2.51604 10.3594 3.07813C10.9219 3.64063 11.3673 4.30208 11.6956 5.0625C12.024 5.82292 12.1879 6.63542 12.1875 7.5C12.1875 8.36458 12.0233 9.17708 11.695 9.9375C11.3667 10.6979 10.9215 11.3594 10.3594 11.9219C9.79688 12.4844 9.13542 12.9298 8.375 13.2581C7.61458 13.5865 6.80208 13.7504 5.9375 13.75C5.38542 13.75 4.84625 13.6796 4.32 13.5388C3.79375 13.3979 3.29125 13.1871 2.8125 12.9062C3.78125 12.3437 4.54438 11.5833 5.10188 10.625C5.65938 9.66667 5.93792 8.625 5.9375 7.5C5.9375 6.375 5.65875 5.33333 5.10125 4.375C4.54375 3.41667 3.78083 2.65625 2.8125 2.09375C3.29167 1.8125 3.79438 1.60167 4.32063 1.46125C4.84688 1.32083 5.38583 1.25042 5.9375 1.25Z" fill="white"/>
</g>
</svg>
