<svg width="35" height="35" viewBox="0 0 35 35" fill="none" xmlns="http://www.w3.org/2000/svg">
<g id="mingcute:down-line">
<g clip-path="url(#clip0_1344_110)">
<rect width="35" height="35" rx="5" fill="#E7E7E7"/>
<g id="Group">
<path id="Vector" fill-rule="evenodd" clip-rule="evenodd" d="M18.5315 22.906C18.258 23.1794 17.8872 23.333 17.5005 23.333C17.1138 23.333 16.7429 23.1794 16.4694 22.906L8.21963 14.6563C8.08034 14.5217 7.96924 14.3608 7.89281 14.1829C7.81638 14.005 7.77615 13.8136 7.77447 13.62C7.77279 13.4263 7.80969 13.2343 7.88301 13.0551C7.95634 12.8758 8.06462 12.713 8.20155 12.5761C8.33848 12.4392 8.5013 12.3309 8.68053 12.2576C8.85975 12.1842 9.05178 12.1473 9.24542 12.149C9.43906 12.1507 9.63042 12.1909 9.80834 12.2674C9.98626 12.3438 10.1472 12.4549 10.2817 12.5942L17.5005 19.8129L24.7192 12.5942C24.9943 12.3285 25.3626 12.1815 25.745 12.1849C26.1274 12.1882 26.4931 12.3415 26.7635 12.6119C27.0339 12.8823 27.1873 13.2481 27.1906 13.6305C27.1939 14.0128 27.0469 14.3812 26.7813 14.6563L18.5315 22.906Z" fill="black"/>
</g>
</g>
</g>
<defs>
<clipPath id="clip0_1344_110">
<rect width="35" height="35" rx="5" fill="white"/>
</clipPath>
</defs>
</svg>
