<svg width="24" height="24" viewBox="0 0 24 24" fill="none" xmlns="http://www.w3.org/2000/svg">
<g id="pajamas:go-back">
<path id="Vector" fill-rule="evenodd" clip-rule="evenodd" d="M19.695 11.6253L16.74 14.5803C16.6295 14.6833 16.5408 14.8075 16.4793 14.9455C16.4178 15.0834 16.3848 15.2324 16.3821 15.3835C16.3794 15.5345 16.4072 15.6846 16.4638 15.8247C16.5204 15.9647 16.6046 16.092 16.7114 16.1988C16.8183 16.3056 16.9455 16.3899 17.0856 16.4464C17.2257 16.503 17.3757 16.5308 17.5268 16.5281C17.6778 16.5255 17.8268 16.4924 17.9648 16.4309C18.1028 16.3694 18.227 16.2808 18.33 16.1703L23.205 11.2953L24 10.5003L23.205 9.70526L18.33 4.83026C18.1167 4.63154 17.8347 4.52335 17.5432 4.5285C17.2518 4.53364 16.9737 4.65171 16.7676 4.85783C16.5614 5.06394 16.4434 5.34202 16.4382 5.63347C16.4331 5.92493 16.5413 6.207 16.74 6.42026L19.695 9.37526H4.875C3.58207 9.37526 2.34209 9.88887 1.42785 10.8031C0.513615 11.7174 0 12.9573 0 14.2503C0 15.5432 0.513615 16.7832 1.42785 17.6974C2.34209 18.6116 3.58207 19.1253 4.875 19.1253H7.875C8.17337 19.1253 8.45952 19.0067 8.67049 18.7958C8.88147 18.5848 9 18.2986 9 18.0003C9 17.7019 8.88147 17.4157 8.67049 17.2048C8.45952 16.9938 8.17337 16.8753 7.875 16.8753H4.875C4.17881 16.8753 3.51113 16.5987 3.01884 16.1064C2.52656 15.6141 2.25 14.9465 2.25 14.2503C2.25 13.5541 2.52656 12.8864 3.01884 12.3941C3.51113 11.9018 4.17881 11.6253 4.875 11.6253H19.695Z" fill="#222222"/>
</g>
</svg>
