<svg width="36" height="36" viewBox="0 0 36 36" fill="none" xmlns="http://www.w3.org/2000/svg">
<g id="ph:arrow-up-duotone">
<g id="Group">
<path id="Vector" opacity="0.2" d="M28.125 15.75H7.875L18 5.625L28.125 15.75Z" fill="#EC3A4C"/>
<path id="Vector_2" d="M28.9208 14.954L18.7958 4.82897C18.6914 4.72437 18.5673 4.64139 18.4307 4.58478C18.2941 4.52816 18.1478 4.49902 17.9999 4.49902C17.8521 4.49902 17.7057 4.52816 17.5691 4.58478C17.4325 4.64139 17.3085 4.72437 17.204 4.82897L7.07897 14.954C6.92146 15.1113 6.81417 15.3118 6.77069 15.5302C6.72721 15.7485 6.74949 15.9749 6.83471 16.1805C6.91993 16.3862 7.06426 16.562 7.24943 16.6856C7.4346 16.8092 7.65228 16.8751 7.87491 16.8749H16.8749V30.3749C16.8749 30.6733 16.9934 30.9594 17.2044 31.1704C17.4154 31.3814 17.7015 31.4999 17.9999 31.4999C18.2983 31.4999 18.5844 31.3814 18.7954 31.1704C19.0064 30.9594 19.1249 30.6733 19.1249 30.3749V16.8749H28.1249C28.3475 16.8751 28.5652 16.8092 28.7504 16.6856C28.9356 16.562 29.0799 16.3862 29.1651 16.1805C29.2503 15.9749 29.2726 15.7485 29.2291 15.5302C29.1856 15.3118 29.0784 15.1113 28.9208 14.954ZM10.5904 14.6249L17.9999 7.21538L25.4094 14.6249H10.5904Z" fill="#EC3A4C"/>
</g>
</g>
</svg>
