<svg width="20" height="20" viewBox="0 0 20 20" fill="none" xmlns="http://www.w3.org/2000/svg">
<g id="ph:arrow-up">
<path id="Vector" d="M9.19268 3.93283C9.25079 3.99088 9.29689 4.05981 9.32834 4.13568C9.35979 4.21156 9.37598 4.29288 9.37598 4.37502C9.37598 4.45715 9.35979 4.53848 9.32834 4.61436C9.29689 4.69023 9.25079 4.75916 9.19268 4.81721L4.63409 9.37502L16.8755 9.37502C17.0413 9.37502 17.2002 9.44087 17.3174 9.55808C17.4346 9.67529 17.5005 9.83426 17.5005 10C17.5005 10.1658 17.4346 10.3247 17.3174 10.442C17.2002 10.5592 17.0413 10.625 16.8755 10.625L4.63409 10.625L9.19268 15.1828C9.30996 15.3001 9.37584 15.4592 9.37584 15.625C9.37584 15.7909 9.30996 15.9499 9.19268 16.0672C9.0754 16.1845 8.91634 16.2504 8.75049 16.2504C8.58464 16.2504 8.42558 16.1845 8.3083 16.0672L2.6833 10.4422C2.62519 10.3842 2.57909 10.3152 2.54764 10.2394C2.51619 10.1635 2.5 10.0822 2.5 10C2.5 9.91788 2.51619 9.83656 2.54764 9.76068C2.57909 9.68481 2.62519 9.61588 2.6833 9.55783L8.3083 3.93283C8.36635 3.87472 8.43528 3.82862 8.51115 3.79717C8.58703 3.76571 8.66836 3.74953 8.75049 3.74953C8.83263 3.74953 8.91396 3.76571 8.98983 3.79717C9.0657 3.82862 9.13463 3.87472 9.19268 3.93283Z" fill="white"/>
</g>
</svg>
