<svg width="36" height="36" viewBox="0 0 36 36" fill="none" xmlns="http://www.w3.org/2000/svg">
<g id="ph:arrow-up-duotone">
<g id="Group">
<path id="Vector" opacity="0.2" d="M28.125 20.25H7.875L18 30.375L28.125 20.25Z" fill="#EC3A4C"/>
<path id="Vector_2" d="M28.9208 21.046L18.7958 31.171C18.6914 31.2756 18.5673 31.3586 18.4307 31.4152C18.2941 31.4718 18.1478 31.501 17.9999 31.501C17.8521 31.501 17.7057 31.4718 17.5691 31.4152C17.4325 31.3586 17.3085 31.2756 17.204 31.171L7.07897 21.046C6.92146 20.8887 6.81417 20.6882 6.77069 20.4698C6.72721 20.2515 6.74949 20.0251 6.83471 19.8195C6.91993 19.6138 7.06426 19.438 7.24943 19.3144C7.4346 19.1908 7.65228 19.1249 7.87491 19.1251H16.8749V5.62509C16.8749 5.32672 16.9934 5.04057 17.2044 4.8296C17.4154 4.61862 17.7015 4.50009 17.9999 4.50009C18.2983 4.50009 18.5844 4.61862 18.7954 4.8296C19.0064 5.04057 19.1249 5.32672 19.1249 5.62509V19.1251H28.1249C28.3475 19.1249 28.5652 19.1908 28.7504 19.3144C28.9356 19.438 29.0799 19.6138 29.1651 19.8195C29.2503 20.0251 29.2726 20.2515 29.2291 20.4698C29.1856 20.6882 29.0784 20.8887 28.9208 21.046ZM10.5904 21.3751L17.9999 28.7846L25.4094 21.3751H10.5904Z" fill="#EC3A4C"/>
</g>
</g>
</svg>
