<svg xmlns="http://www.w3.org/2000/svg" width="24" height="23" viewBox="0 0 24 23" fill="none">
  <path d="M23.2561 21.1875C21.5904 18.3076 19.0233 16.2426 16.0275 15.2637C17.5094 14.3816 18.6607 13.0374 19.3046 11.4376C19.9486 9.83776 20.0496 8.0708 19.5921 6.40803C19.1347 4.74526 18.144 3.27863 16.7724 2.23337C15.4007 1.18811 13.7238 0.622009 11.9993 0.622009C10.2747 0.622009 8.59784 1.18811 7.22616 2.23337C5.85448 3.27863 4.86385 4.74526 4.40638 6.40803C3.94891 8.0708 4.04991 9.83776 4.69387 11.4376C5.33782 13.0374 6.48913 14.3816 7.97098 15.2637C4.9752 16.2415 2.40816 18.3065 0.742384 21.1875C0.681296 21.2871 0.640778 21.3979 0.623218 21.5134C0.605659 21.629 0.611414 21.7468 0.640144 21.8601C0.668875 21.9733 0.719999 22.0797 0.7905 22.1729C0.861 22.2661 0.94945 22.3442 1.05063 22.4026C1.15181 22.4611 1.26367 22.4986 1.37961 22.5132C1.49555 22.5277 1.61323 22.5188 1.72569 22.4871C1.83815 22.4554 1.94313 22.4015 2.03442 22.3286C2.12571 22.2556 2.20147 22.1652 2.25723 22.0625C4.31785 18.5012 7.96004 16.375 11.9993 16.375C16.0385 16.375 19.6807 18.5012 21.7413 22.0625C21.797 22.1652 21.8728 22.2556 21.9641 22.3286C22.0554 22.4015 22.1604 22.4554 22.2728 22.4871C22.3853 22.5188 22.503 22.5277 22.6189 22.5132C22.7348 22.4986 22.8467 22.4611 22.9479 22.4026C23.0491 22.3442 23.1375 22.2661 23.208 22.1729C23.2785 22.0797 23.3296 21.9733 23.3584 21.8601C23.3871 21.7468 23.3929 21.629 23.3753 21.5134C23.3577 21.3979 23.3172 21.2871 23.2561 21.1875ZM5.87426 8.49998C5.87426 7.28857 6.23348 6.10437 6.90651 5.09712C7.57953 4.08987 8.53612 3.30481 9.65532 2.84122C10.7745 2.37764 12.0061 2.25634 13.1942 2.49267C14.3823 2.72901 15.4737 3.31236 16.3303 4.16896C17.1869 5.02555 17.7702 6.11692 18.0066 7.30506C18.2429 8.49319 18.1216 9.72472 17.658 10.8439C17.1944 11.9631 16.4094 12.9197 15.4021 13.5927C14.3949 14.2658 13.2107 14.625 11.9993 14.625C10.3753 14.6232 8.81843 13.9774 7.67015 12.8291C6.52186 11.6808 5.876 10.1239 5.87426 8.49998Z" fill="black"/>
</svg>