<svg width="28" height="28" viewBox="0 0 28 28" fill="none" xmlns="http://www.w3.org/2000/svg">
<g id="ri:speak-line">
<path id="Vector" d="M19.7576 10.4592C19.4453 8.11286 18.2534 5.97279 16.423 4.47196C14.5926 2.97113 12.2605 2.2216 9.89848 2.37503C7.53645 2.52845 5.32088 3.57338 3.70005 5.29838C2.07922 7.02339 1.17415 9.29967 1.16797 11.6667C1.16797 13.874 1.93447 15.9028 3.21664 17.5012C4.1593 18.6783 4.66797 19.9792 4.66797 21.357V25.6667H15.168L15.1691 22.1667H17.5013C18.1201 22.1667 18.7136 21.9208 19.1512 21.4832C19.5888 21.0457 19.8346 20.4522 19.8346 19.8333V16.4162L22.1213 15.4362C22.5203 15.2658 22.5553 14.8598 22.3826 14.588L19.7576 10.458V10.4592ZM3.5013 11.6667C3.49951 9.88776 4.17506 8.1749 5.39069 6.87614C6.60631 5.57738 8.27081 4.79016 10.0459 4.67444C11.8211 4.55872 13.5737 5.12319 14.9476 6.25314C16.3216 7.38309 17.2138 8.99375 17.443 10.7578L17.5095 11.2735L19.3096 14.1027L17.5013 14.8773V19.8333H12.837L12.8346 23.3333H7.0013V21.357C7.0013 19.4448 6.3118 17.633 5.03547 16.0417C4.03915 14.8015 3.4977 13.2575 3.5013 11.6667ZM24.681 21.119L22.7385 19.824C23.8907 18.1005 24.5043 16.0732 24.5013 14C24.5049 11.9265 23.8917 9.8988 22.7396 8.17483L24.681 6.87983C26.0894 8.98698 26.8391 11.4655 26.8346 14C26.8346 16.6343 26.0413 19.082 24.681 21.119Z" fill="black"/>
</g>
</svg>
