<svg xmlns="http://www.w3.org/2000/svg" width="20" height="20" viewBox="0 0 20 20" fill="none">
<g clip-path="url(#clip0_1071_885)">
<path d="M8.67226 4.63338L3.33337 10L8.67226 15.3667C8.72048 15.43 8.78174 15.4823 8.85189 15.5198C8.92205 15.5574 8.99946 15.5795 9.07888 15.5846C9.15831 15.5896 9.23789 15.5776 9.31226 15.5492C9.38662 15.5208 9.45402 15.4768 9.50989 15.4202C9.56576 15.3635 9.60881 15.2955 9.63611 15.2207C9.6634 15.1459 9.67432 15.0662 9.66812 14.9868C9.66192 14.9075 9.63874 14.8304 9.60016 14.7608C9.56158 14.6912 9.50849 14.6307 9.44449 14.5834L5.45004 10.5556L16.0778 10.5556C16.2252 10.5556 16.3665 10.4971 16.4707 10.3929C16.5748 10.2887 16.6334 10.1474 16.6334 10C16.6334 9.85271 16.5748 9.7114 16.4707 9.60721C16.3665 9.50302 16.2252 9.44449 16.0778 9.44449L5.45004 9.44449L9.44449 5.41672C9.54836 5.3121 9.60643 5.17051 9.60591 5.02308C9.60538 4.87566 9.54632 4.73448 9.44171 4.6306C9.33709 4.52673 9.1955 4.46866 9.04808 4.46918C8.90065 4.4697 8.75947 4.52877 8.6556 4.63338L8.67226 4.63338Z" fill="#606060"/>
</g>
<defs>
<clipPath id="clip0_1071_885">
<rect width="20" height="20" fill="white" transform="translate(0 20) rotate(-90)"/>
</clipPath>
</defs>
</svg>