<svg width="34" height="34" viewBox="0 0 34 34" fill="none" xmlns="http://www.w3.org/2000/svg">
<rect width="33.9672" height="33.9672" rx="6.06556" fill="white" fill-opacity="0.8"/>
<path d="M14.0513 17.2869C14.0513 18.0242 13.7584 18.7313 13.2371 19.2527C12.7157 19.774 12.0086 20.0669 11.2713 20.0669C10.5339 20.0669 9.82683 19.774 9.30547 19.2527C8.78411 18.7313 8.49121 18.0242 8.49121 17.2869C8.49121 16.5496 8.78411 15.8425 9.30547 15.3211C9.82683 14.7997 10.5339 14.5068 11.2713 14.5068C12.0086 14.5068 12.7157 14.7997 13.2371 15.3211C13.7584 15.8425 14.0513 16.5496 14.0513 17.2869Z" stroke="black" stroke-width="1.51639"/>
<path d="M19.6109 11.1707L14.0508 15.0627M19.6109 23.4029L14.0508 19.5108" stroke="black" stroke-width="1.51639" stroke-linecap="round"/>
<path d="M25.1724 24.5149C25.1724 25.2522 24.8795 25.9593 24.3581 26.4807C23.8368 27.002 23.1297 27.2949 22.3924 27.2949C21.655 27.2949 20.9479 27.002 20.4266 26.4807C19.9052 25.9593 19.6123 25.2522 19.6123 24.5149C19.6123 23.7776 19.9052 23.0704 20.4266 22.5491C20.9479 22.0277 21.655 21.7348 22.3924 21.7348C23.1297 21.7348 23.8368 22.0277 24.3581 22.5491C24.8795 23.0704 25.1724 23.7776 25.1724 24.5149ZM25.1724 10.0586C25.1724 10.7959 24.8795 11.503 24.3581 12.0244C23.8368 12.5458 23.1297 12.8387 22.3924 12.8387C21.655 12.8387 20.9479 12.5458 20.4266 12.0244C19.9052 11.503 19.6123 10.7959 19.6123 10.0586C19.6123 9.3213 19.9052 8.61418 20.4266 8.09282C20.9479 7.57146 21.655 7.27856 22.3924 7.27856C23.1297 7.27856 23.8368 7.57146 24.3581 8.09282C24.8795 8.61418 25.1724 9.3213 25.1724 10.0586Z" stroke="black" stroke-width="1.51639"/>
</svg>
