<svg width="20" height="20" viewBox="0 0 20 20" fill="none" xmlns="http://www.w3.org/2000/svg">
<g id="solar:wallet-outline">
<g id="Group">
<path id="Vector" d="M15.8346 9.99935C15.8346 10.2204 15.7468 10.4323 15.5906 10.5886C15.4343 10.7449 15.2223 10.8327 15.0013 10.8327C14.7803 10.8327 14.5683 10.7449 14.412 10.5886C14.2558 10.4323 14.168 10.2204 14.168 9.99935C14.168 9.77834 14.2558 9.56637 14.412 9.41009C14.5683 9.25381 14.7803 9.16602 15.0013 9.16602C15.2223 9.16602 15.4343 9.25381 15.5906 9.41009C15.7468 9.56637 15.8346 9.77834 15.8346 9.99935Z" fill="white"/>
<path id="Vector_2" fill-rule="evenodd" clip-rule="evenodd" d="M8.28797 2.70801H10.8813C12.413 2.70801 13.6263 2.70801 14.5755 2.83551C15.5521 2.96717 16.343 3.24384 16.9671 3.86717C17.7371 4.63801 17.983 5.66967 18.0721 7.00884C18.553 7.21967 18.9163 7.66717 18.9555 8.23384C18.9596 8.28467 18.9596 8.33884 18.9596 8.38884V11.6105C18.9596 11.6605 18.9596 11.7147 18.9563 11.7647C18.9163 12.3313 18.553 12.7797 18.0721 12.9913C17.983 14.3297 17.7371 15.3613 16.9671 16.1322C16.343 16.7555 15.5521 17.0322 14.5755 17.1638C13.6255 17.2913 12.413 17.2913 10.8813 17.2913H8.28797C6.7563 17.2913 5.54297 17.2913 4.5938 17.1638C3.61714 17.0322 2.8263 16.7555 2.20214 16.1322C1.5788 15.508 1.30214 14.7172 1.17047 13.7405C1.04297 12.7905 1.04297 11.578 1.04297 10.0463V9.95301C1.04297 8.42134 1.04297 7.20801 1.17047 6.25884C1.30214 5.28217 1.5788 4.49134 2.20214 3.86717C2.8263 3.24384 3.61714 2.96717 4.5938 2.83551C5.5438 2.70801 6.7563 2.70801 8.28797 2.70801ZM16.808 13.1247H15.193C13.4055 13.1247 11.8755 11.768 11.8755 9.99967C11.8755 8.23134 13.4055 6.87467 15.1921 6.87467H16.8071C16.7121 5.75717 16.498 5.16634 16.0821 4.75134C15.7296 4.39884 15.2463 4.18717 14.408 4.07467C13.5521 3.95967 12.423 3.95801 10.8338 3.95801H8.3338C6.74464 3.95801 5.6163 3.95967 4.7588 4.07467C3.9213 4.18717 3.43797 4.39884 3.08547 4.75134C2.73297 5.10384 2.5213 5.58717 2.4088 6.42551C2.2938 7.28217 2.29214 8.41051 2.29214 9.99967C2.29214 11.5888 2.2938 12.7172 2.4088 13.5747C2.5213 14.4122 2.73297 14.8955 3.08547 15.248C3.43797 15.6005 3.9213 15.8122 4.75964 15.9247C5.6163 16.0397 6.74464 16.0413 8.3338 16.0413H10.8338C12.423 16.0413 13.5521 16.0397 14.4088 15.9247C15.2463 15.8122 15.7296 15.6005 16.0821 15.248C16.498 14.833 16.713 14.243 16.808 13.1247ZM4.3763 6.66634C4.3763 6.50058 4.44215 6.34161 4.55936 6.2244C4.67657 6.10719 4.83554 6.04134 5.0013 6.04134H8.33464C8.5004 6.04134 8.65937 6.10719 8.77658 6.2244C8.89379 6.34161 8.95964 6.50058 8.95964 6.66634C8.95964 6.8321 8.89379 6.99107 8.77658 7.10828C8.65937 7.22549 8.5004 7.29134 8.33464 7.29134H5.0013C4.83554 7.29134 4.67657 7.22549 4.55936 7.10828C4.44215 6.99107 4.3763 6.8321 4.3763 6.66634ZM17.438 8.12467H15.193C14.0063 8.12467 13.1255 9.00717 13.1255 9.99967C13.1255 10.9922 14.0063 11.8747 15.1921 11.8747H17.4571C17.6288 11.8638 17.703 11.748 17.7088 11.678V8.32134C17.703 8.25134 17.6288 8.13551 17.4571 8.12551H17.4371L17.438 8.12467Z" fill="white"/>
</g>
</g>
</svg>
