<svg width="28" height="28" viewBox="0 0 28 28" fill="none" xmlns="http://www.w3.org/2000/svg">
<g id="solar:share-linear">
<rect width="28" height="28" rx="5" fill="white" fill-opacity="0.8"/>
<g id="Group">
<path id="Vector" d="M11.5833 14.25C11.5833 14.8578 11.3419 15.4407 10.9121 15.8705C10.4823 16.3002 9.89945 16.5417 9.29167 16.5417C8.68388 16.5417 8.10098 16.3002 7.67121 15.8705C7.24144 15.4407 7 14.8578 7 14.25C7 13.6422 7.24144 13.0593 7.67121 12.6296C8.10098 12.1998 8.68388 11.9583 9.29167 11.9583C9.89945 11.9583 10.4823 12.1998 10.9121 12.6296C11.3419 13.0593 11.5833 13.6422 11.5833 14.25Z" stroke="black" stroke-width="1.25"/>
<path id="Vector_2" d="M16.1668 9.20834L11.5835 12.4167M16.1668 19.2917L11.5835 16.0833" stroke="black" stroke-width="1.25" stroke-linecap="round"/>
<path id="Vector_3" d="M20.7498 20.2083C20.7498 20.8161 20.5084 21.399 20.0786 21.8288C19.6489 22.2586 19.066 22.5 18.4582 22.5C17.8504 22.5 17.2675 22.2586 16.8377 21.8288C16.4079 21.399 16.1665 20.8161 16.1665 20.2083C16.1665 19.6005 16.4079 19.0177 16.8377 18.5879C17.2675 18.1581 17.8504 17.9167 18.4582 17.9167C19.066 17.9167 19.6489 18.1581 20.0786 18.5879C20.5084 19.0177 20.7498 19.6005 20.7498 20.2083ZM20.7498 8.29167C20.7498 8.89945 20.5084 9.48235 20.0786 9.91212C19.6489 10.3419 19.066 10.5833 18.4582 10.5833C17.8504 10.5833 17.2675 10.3419 16.8377 9.91212C16.4079 9.48235 16.1665 8.89945 16.1665 8.29167C16.1665 7.68388 16.4079 7.10098 16.8377 6.67121C17.2675 6.24144 17.8504 6 18.4582 6C19.066 6 19.6489 6.24144 20.0786 6.67121C20.5084 7.10098 20.7498 7.68388 20.7498 8.29167Z" stroke="black" stroke-width="1.25"/>
</g>
</g>
</svg>
