<svg width="18" height="15" viewBox="0 0 18 15" fill="none" xmlns="http://www.w3.org/2000/svg">
<path id="Vector" fill-rule="evenodd" clip-rule="evenodd" d="M13.2207 0.21934C13.0802 0.359965 13.0013 0.550589 13.0013 0.74934C13.0013 0.948091 13.0802 1.13871 13.2207 1.27934L14.9407 2.99934H5.71466C4.81066 2.99934 4.08166 2.99934 3.49266 3.05234C2.88666 3.10734 2.35666 3.22434 1.87566 3.50234C1.30552 3.83125 0.831987 4.30443 0.502661 4.87434C0.22566 5.35534 0.10866 5.88534 0.0536594 6.49134C0.000659943 7.08034 0.000659943 7.80934 0.000659943 8.71334V8.78534C0.000659943 9.68934 0.000659943 10.4183 0.0536594 11.0073C0.10866 11.6133 0.224661 12.1433 0.50366 12.6243C0.832571 13.1945 1.30576 13.668 1.87566 13.9973C2.35666 14.2743 2.88666 14.3913 3.49266 14.4463C4.08166 14.4993 4.81066 14.4993 5.71466 14.4993H12.7507C12.9496 14.4993 13.1403 14.4203 13.281 14.2797C13.4216 14.139 13.5007 13.9483 13.5007 13.7493C13.5007 13.5504 13.4216 13.3597 13.281 13.219C13.1403 13.0784 12.9496 12.9993 12.7507 12.9993H5.75066C4.80266 12.9993 4.14066 12.9993 3.62866 12.9523C3.12566 12.9063 2.84066 12.8223 2.62566 12.6983C2.2834 12.5008 1.9992 12.2166 1.80166 11.8743C1.67766 11.6593 1.59366 11.3743 1.54766 10.8713C1.50166 10.3593 1.50066 9.69734 1.50066 8.74934C1.50066 7.80134 1.50066 7.13934 1.54766 6.62734C1.59366 6.12434 1.67766 5.83934 1.80166 5.62434C1.9992 5.28208 2.2834 4.99788 2.62566 4.80034C2.84066 4.67634 3.12566 4.59234 3.62866 4.54634C4.14066 4.50034 4.80266 4.49934 5.75066 4.49934H14.9407L13.2207 6.21934C13.147 6.288 13.0879 6.3708 13.0469 6.4628C13.0059 6.5548 12.9838 6.65412 12.9821 6.75482C12.9803 6.85552 12.9988 6.95555 13.0365 7.04894C13.0743 7.14233 13.1304 7.22716 13.2016 7.29838C13.2728 7.3696 13.3577 7.42574 13.4511 7.46346C13.5445 7.50118 13.6445 7.51971 13.7452 7.51793C13.8459 7.51616 13.9452 7.49411 14.0372 7.45312C14.1292 7.41213 14.212 7.35303 14.2807 7.27934L17.2807 4.27934C17.4211 4.13871 17.5 3.94809 17.5 3.74934C17.5 3.55059 17.4211 3.35997 17.2807 3.21934L14.2807 0.21934C14.14 0.0788896 13.9494 0 13.7507 0C13.5519 0 13.3613 0.0788896 13.2207 0.21934Z" fill="#1B1B1B"/>
</svg>
